<mxfile host="65bd71144e">
    <diagram id="TOAH_FR5TMlCX-uXmzPO" name="Page-1">
        <mxGraphModel dx="1321" dy="662" grid="1" gridSize="10" guides="1" tooltips="1" connect="1" arrows="1" fold="1" page="1" pageScale="1" pageWidth="850" pageHeight="1100" math="0" shadow="0">
            <root>
                <mxCell id="0"/>
                <mxCell id="1" parent="0"/>
                <mxCell id="7" value="" style="edgeStyle=none;html=1;" edge="1" parent="1" source="2" target="6">
                    <mxGeometry relative="1" as="geometry"/>
                </mxCell>
                <mxCell id="9" value="" style="edgeStyle=none;html=1;" edge="1" parent="1" source="2" target="8">
                    <mxGeometry relative="1" as="geometry"/>
                </mxCell>
                <mxCell id="21" value="" style="edgeStyle=none;html=1;" edge="1" parent="1" source="2" target="20">
                    <mxGeometry relative="1" as="geometry"/>
                </mxCell>
                <mxCell id="23" value="" style="edgeStyle=none;html=1;" edge="1" parent="1" source="2" target="22">
                    <mxGeometry relative="1" as="geometry"/>
                </mxCell>
                <mxCell id="2" value="App.jsx" style="rounded=1;whiteSpace=wrap;html=1;" vertex="1" parent="1">
                    <mxGeometry x="370" y="170" width="120" height="60" as="geometry"/>
                </mxCell>
                <mxCell id="16" value="" style="edgeStyle=none;html=1;" edge="1" parent="1" source="6" target="15">
                    <mxGeometry relative="1" as="geometry"/>
                </mxCell>
                <mxCell id="18" value="" style="edgeStyle=none;html=1;" edge="1" parent="1" source="6" target="17">
                    <mxGeometry relative="1" as="geometry"/>
                </mxCell>
                <mxCell id="6" value="Home.jsx" style="whiteSpace=wrap;html=1;rounded=1;" vertex="1" parent="1">
                    <mxGeometry x="100" y="340" width="120" height="60" as="geometry"/>
                </mxCell>
                <mxCell id="11" value="" style="edgeStyle=none;html=1;" edge="1" parent="1" source="8" target="10">
                    <mxGeometry relative="1" as="geometry"/>
                </mxCell>
                <mxCell id="13" value="" style="edgeStyle=none;html=1;" edge="1" parent="1" source="8" target="12">
                    <mxGeometry relative="1" as="geometry"/>
                </mxCell>
                <mxCell id="8" value="Product.jsx" style="whiteSpace=wrap;html=1;rounded=1;" vertex="1" parent="1">
                    <mxGeometry x="410" y="330" width="120" height="60" as="geometry"/>
                </mxCell>
                <mxCell id="10" value="ProductList.jsx" style="whiteSpace=wrap;html=1;rounded=1;" vertex="1" parent="1">
                    <mxGeometry x="350" y="480" width="120" height="60" as="geometry"/>
                </mxCell>
                <mxCell id="12" value="Category.jsx" style="whiteSpace=wrap;html=1;rounded=1;" vertex="1" parent="1">
                    <mxGeometry x="520" y="480" width="120" height="60" as="geometry"/>
                </mxCell>
                <mxCell id="15" value="Sidebar.jsx" style="whiteSpace=wrap;html=1;rounded=1;" vertex="1" parent="1">
                    <mxGeometry x="20" y="480" width="120" height="60" as="geometry"/>
                </mxCell>
                <mxCell id="17" value="Content.jsx" style="whiteSpace=wrap;html=1;rounded=1;" vertex="1" parent="1">
                    <mxGeometry x="200" y="480" width="120" height="60" as="geometry"/>
                </mxCell>
                <mxCell id="20" value="Navbar.jsx" style="whiteSpace=wrap;html=1;rounded=1;" vertex="1" parent="1">
                    <mxGeometry x="710" y="240" width="120" height="60" as="geometry"/>
                </mxCell>
                <mxCell id="22" value="Login.jsx" style="whiteSpace=wrap;html=1;rounded=1;" vertex="1" parent="1">
                    <mxGeometry x="590" y="330" width="120" height="60" as="geometry"/>
                </mxCell>
                <mxCell id="24" value="" style="shape=image;verticalLabelPosition=bottom;labelBackgroundColor=default;verticalAlign=top;aspect=fixed;imageAspect=0;image=data:image/png,iVBORw0KGgoAAAANSUhEUgAAAaUAAADNCAYAAAAYAm8tAAAAAXNSR0IArs4c6QAAAARnQU1BAACxjwv8YQUAAAAJcEhZcwAADsMAAA7DAcdvqGQAAFdxSURBVHhe7b0HnF5HefZ9nfLU7btaaVfNKlZzQcYFYxsbg20CpoQWSpzwkg/ImwAh5ZcQ4CUJIR/wQUghBV4gAeNAIBiHarAdF8DYlovcJNnqktW1vT71lO++5jyzeizLtrzWanfl+/9o9syZMzOn6Xdf556ZM8cpFosxFEVRFAUOELuypCxInDjHkgimTY10cO+KoiiKIvrjwo18WXqJJDmh/EmCg0jSHdku22Q5VagoKYqiKBMkYkQvSMTICRA7VbMEGBJxmkpUlBRFUU4x4jh+2kAcxzHhKcSh5CnBcatwfBElTwTIj0WKRJi8WMqECMPylArT8+pTOvqk7AlPJfZiRlFyURg/GftVFEWZibiuiyCgFyO64XlPaw+t7SS0nwwsW48rHpIrElSW+iLaWVfsK30nqTIl8bSbgivxMIqnTJZmnShxH7yYvPh2/ejjUBRFeaFAQfJ939jBMAyfJD710G5aG037SUGyD/dHEHGLK+IdpRHEKQm+5HFFrESwYskbVJEW0+uIlk2VtZ+0KNmT5knaQI6+GMe6OM8X1mn3pyiK8kKG9rBecJ6Oei/q6e21iJpbRSUUkfMbRJSAapUelHhKtUDfKorYzzQ1vtLzEiWeGEOlIsoqUK2p2tzGC8Dl0e7h84H7qcoVyufzGB0dNftoaGiYOBYueXO4JDaNx5RKpSZuhKIoyqkC7eDQ0JCxcx0dHcYGWg/I2uFyuYyenh5ks1m0t7dP2OV6m0gvyzOiE6PsZzBc9XHfgwPYumUfgmIFHc15nH3WUpxxVg4ZyedF5VrJE8ukRYknS4HgyW3cuNGkrVq1Ctu2bUNjYyMWLFhgLkRLSwvGxsZMfl6QQqFgTr65uRnj4+PmgmUymYmLeDQ2PZ1O4+6778bmzZtxzTXXYO/evWhqajKBwsR8rJv1MVjXlPF169bhJS95iamDN6F+m6IoymyGdpbccccdeOyxx4w9pW2mfXvHO95hbO0tt9yCCy+8EH19fVi5cqWxhRQx2kIrar29vWjJNGNh5yIcTAPX3rQb+/vmICzlsHSuh4M7RpFtDNG4YATve+NitARTI0rexz/+8U/U4s8JGncadnpHPJn+/n5zEfbs2YM5c+bgwQcfNBeAgkWvhmL10EMPmZOnoLA8t+3evRsLFy6cUO56eNF4gQkv/OOPP44lS5ZMCCLr3L59uzmGO++80zwJsH7Wu3z5cvz0pz81osVjWbFihamLx8h9qyApinIqwJYjQvv2q1/9yjzs8wGddpcP44cPH8bSpUvR3d2NxYsXG6fg/vvvx/r1603Zm2++2bQk7dq1CyPDI1i2Yjnu39qHdY+OYCz0MX9ZFqG3D+1zY/QNRhgZb8GqBWnMaeD7SyeeSbetUQgYSqWSWe/q6jInzBMfGBgwbuSll16KgwcPGnFZu3atybt69WpzUSgwzEcx4gU8FrzIFCOKH8WH+Sl+fBpgOXpmrI/eE/f/yle+Ejt37pzwmnhT6KpS9OixsYxxUUXUjiWCiqIosw3aSNoz2jg6BLS1V155Jd7ylrcYu9ja2mry8GHcelUUIZahTe7s7MSaNWtMC9fZ563BYHUARbHZYdgJL56L7VsL6Ow6DWXHRdkN4WZ9jIxNXVfIpC0zhYaBwkRo7O0JUwgoRmw2YzMeoaDQZWQoFovGheRFyOVyplnvWLAPifXz4tEDe+1rX4srrrhi4uJS2SlQvKB8GrjrrrvMBWadGzZswPDwsCnLfbMJ0R4v03i8iqIosx3aQ9pKLilKixYtMqJDj4m2rq2tzbQqsTXphhtuwL59+0ygLbZ2m3Hme/DBx+F77cimGuDHJaSk/rNWtmD/jkjWO5FyGtDf+wSam6eupWnSfUq8APbEbZyeDddteyVFgR4Tm9q4jU1rbN+kOrNZjc1tVpSO1ZzGC8qyFBLWa8vyBnB/3AcvKp8QmM766anxeOhRUfSsN8f6uR9uI7YZT1EUZbZDO0i7yIf3M8880zz4s3WJLUm0gRSekZER01zHPnjaR9pDK0wMjA8OFNDY3IFhMY1f+68t6B3ulPKtInbycN8zCnjjWHh6gHdesRDtzgwb6DCTOZbYaB+SoijKM8O574IghtMQYbCUxa23F7Btax+KpTKam3I459z5OPt8Bx0pcTQqUyMdKkqKoigvAI7HLjpRCj5cVN1+04cEP4dCUEAYhfDjDuQkzb5I63FOvCnglBSlYwmQNtUpiqI8Mw44zVAVjjsqRrMF5dBH6BUROrIeppGNO5F2SpyqFZGTzKpzolFPSVEU5QXA8djFOHIRBTHy+ZKoTjMqZUnzpZxfgu9mERcc+M6YpLmoYIpEqVAoqAuhKIpyisP+ouQTFJEsJcQUJBEWSaeHJBGzHoOTDIzDczgwTDylWPwil3PiufDl54GekzhObN6bApxSUUVJURTl1Iay48vCfhuJZl9EJU4ZsXLEizKfo3Cmbvbv48UpFkoqSoqiKKcwlJyqRy+IkkOTL65OzOa3pPku+Zt8tsKPpleWnE37IhUlRVGUU5oYYWqgFmeTXcqIUmz6lGJZhia4HH0X5JJs04Tz/3zmsIqSoijKKQyb5nyMmyHfTpw1S/pFsRNNCBK7mCgG/LjfdOL8ry+OqygpiqKc0sTwIo6Xy8EJM+YTFVV+4VwcJscLUapU4KYzqIYBXH4GfRoRUZrCmfUURVGUGUCMql8WUcojKnMUHb+zVBEFKIkPVUEq24hy1RPfSdL5Ab9pxPndL/DbgoqiKMqpSuTEGE2X4MVZ8Zg8pMVTcp1xRPGQqEAogpSC67UDgY9sbdjDdOH873/S5jtFUZRTGY6+K/pZxOIEZSlIYSBK1Y95XSk0NjViy5ZDyGUXoSLbXT/5HNF04bzri6fejA6KoijKEfiWksdmulg8oqAKLxxFR2sVV79uCVrbgJt+OoxdO8dR8Vox5k/NTA3Hi/M7/6KipCjK5EjFHtwoEmMWo+JmkIqAdhxEaTyLajqDShwgm02jeBxvnhxvo5EarOeOK1ctJ2KEcoBGJ0Rbvox3vXOReEniMIkGVeS+/fAnfbjvsV5UW5bUSiV3xHVcVMSF8kSswiBEJsMGvhhxHEowWcx0RSdqflHnPSpKiqJMBrEcXpyGHwaopKooex6yoYNXrhpDV0c7xsXYcToaTiCQTb4F+sxIfccjTGZ2HOU5QSNfEuFp4KQOhQinL3Qxt0Punz9uhoVX0YSxErBxS0lE6skfXQ1DKc97TQdKlkWpaN1jw+gtJJ9hJypKiqLMCGKIdxRWEfhFBJ48hYcF/PV7FqJRjF+Fs9hIHpo4nzPbHAfHJUq1pXL8RHJhh8WbTcsV5vOBmWPVGZVrOSSBvxZxohqRcj2zrf4iH+u1pf/7sxGs35OprZ1YUZqaGfUURTnloQkK3VgCX8CMxJgEYvCKaEmL8QuqaMS4PH/3IhUPwZE8xxNwHOFY5TQ8c/CcELnyYbknJXlI4Iu0dH88kai83LcmeYLwkXc8uGUKTChlGJKyfFKI6S4ZcUqEJ52aOulQT0lRlElhRMlzxFMKRJQYIrQEY/jc7y6EJ7bMPPLWDFkh9ewvZDLrMR7KnwL3q0brucFbkQ3lpoScXkiuMmcashuoO+ZmSlTWS2n7npK9G0fuTCSZ+JbTtTeP4KEdR5r5tPlOUZQZAT2lVDWWh24HQRyhzSniU+/rME127ECnweOXSuFN7zBjReCDAhvvHN/oEh8TErmh0EiMifykBepfnk1ysIGPS/6CKMQ3bq3gnm1pI0bcxO0mfgJQUVIUZdLEjotUxUHkO2LKqmj1RvD//u5c5OSJu8LtEszz9LM7Son9Ox7UYj13jLYEEhjhXOBWaChCFCWmRBLEk4rST73GXLf3R+7l1+4o4u7tIlFTIEp03hRFUSYFbRVfzDSTe5pliJgdEyhIGJUUdqbzjUxZfbZA+ybLZwvHLKvhmQOvLT0k8PMV9HeY7Ejg1EIiQshIeloCPam6crVgrjvTJXBE5dGadSLhrhRFUZ4zNEyRG0iIakaKxs6FKyuMpcTgpeTHj8hF8pR+dAid6lFB0vDUEIio1QfmO1Z9Gp4psDeo1oInd4uekRtHR8aPGNVJZg4/upwJkon9TSZ4yaziU4WKkqIokyQ2xilyaaREicSw8ZMIfpABgpwYuzzcahbgRJ+yLQkiW7U452BLAuMOPNnmi0kyQ5albi75HO+ar6OmZI2d9ClZl1wMRgKNGZX1xLAe2QfXuTwFgjlPxnlONnBdzpVXbOKcnyHwXpk7VpWaihKjJytLzjuUbDCDHYyTZK6vvWfJ/rxIrjODxH2KmOSbKrxzr/74J2pxRVGU48b4RWLw5FHaiAg7yN1UAa9b24Ao7YhQJdbLcSUeOggl9PUP4ee/uAuu24B0rhlVKRuI8SsF4gMFnDGABrQE1ytIeozhKIO7Hi/jR+tGcdsGB/fv9lEUe8qpcWhJU+6gLDmIQsQvEhnjCzlSn0Rk32yKMgcw4wKlNJZjdVzxWeS6OJJWqUTwPB9BIGIg6ZwEwxEVKAfilcg1dHk9jYiEGB+vIk5nMFgBMn5yD8JQanU9KSf7kPqDQDxYCpKkhbLdJMs9YxNeVVYCXitP9iv+J9UmEG+1LNdwlOMcODrFkePiMdArYpA8sSNlpY6HdgXY3y9SWdePpAMdFEWZdoyHJPaKfgsb2rKZEfzLu+YhytBARbWnb7GGsiwWK8jl09iztw+f+MTn4Hh52SglRTtSpm/dR0M+jw//6e+jvT2FstR73Xd3YE+vxL025Jub0Dd4AO7YIC4+bz7e+GttSMUFZMSYgu/asG2JGNvIF26OvNw5E6FoBCLGBw8eQm9PL7LZHJYsWYqmphyq1Viu1zhyDVm5xuIP+S4G+iSPiEhTS7ukOTggenzTz+/DOatOx/zOdtx73wM466yzMG9ulnqCX/7yESxYuAArVszB3XdvhptO4aKLl+O+e3dL/RVcfPFKo5Fbtw5I2IILX3ohHnroUbkfaXS05nH+2iXivVIoKYYcJMH+qJSZkui628Zx71Z+/kJ2JPdWBzooijKrCIIK0iI8fPrvnj8Hra1zMDoaYnAwQk9PgEOHQ+w/NIQDvYcR+h5kkzG6+/tcFKttaGxsEsECzjunG9n2hXhw8wC27KGDkJenfnbSi2ch1ixkYJMivYoZTCQXgiac8wIuWDAfzc3NWLV6FQqFcezatVe8nhA7d+5CqVgVwRoUIe8Ro59BEProOTwoXiUk7TAWn7YCS1e1o5oCLrnifGzcsRmhXOeSXIcLLluL8bCCEfGmznnpajS1LoY8F6ClfQnmL1qJA4flQUG0e8/+MVzxqouw7+A4Lrv8HMzpaEV311zxsESHKDR8v8kcbSI6Jib3capQUVIUZcpx3Rheik1KgbFxy1euNobVT+VNCCMfnrhMjluFkxLPxxNj2VdBIXIQpRpwSOLVqIwg6sNAoYiy04Dd+yum494VY52YS/PQLmkcAzizcV023cm5sZ+GTXhRgGKhgIp4MK2tLRgfH0NrSyua8jkR40bjZaYyObkuvlnSu1yxch7Gi0U8sukwmtuAw/1FrBFPKZZr54uTOC6C42XSkOIYLQKVkM2i4kNWC9i6fTvmzJUDkfUlSxfgplseRmtbI8pSJgrKIkp5RHIRjShRnYxU2KtM6uMnFhUlRVGmHNf3xchRLiJIVAzhIqTSjtjYEC1tOaw+YylefdUV+O23vBPNOXo+VTS2pMXzCVAWg71omcTjNJpaOkXcIvG4xsVwpsGJr10zYyjftUkMGgcFSM1mvzMVzn5gnBB+flzEKahWkRcBKoyPY2R0xMTLpXGMjY1idIyeUSIo1aiCUlBESTyeg4dHRdBjFEdL2PhwH3ZsfgJpx8fhfTHGh4B77nwILfkOSDW4764H0d7K95CAfG4cC+Yn7yKNjZTQ1FjCooVZSXPECzuIVacvNVfPfMEiFtk3zXI2yN8p9JKIDnRQFGXy0E6JkaIQiFSI4JRx9dpGxOx8lw2JKZO/seTwPGOM6Rn09w+JuDi4+nVXYe25K7ByVRcWtC3ES85YAdEk8SI8ZBqALTsr4g2kxTinkJX8e3b3I6z0YuWSBlzy4ha0S143ZP+RHAT3IT9+aoG/5OBmKDXLzoENURShpbUV6UwG2WwWKT+FpqYG5LJyzlk5k5SH1jltIuIuMhkOLohEtLLiBWVErAKcf3Y3mrN5tEmZfDoFR0S8Ieuhu7MTKdlPVjzUrjkd8JwRtDRmkZEHgQVd7YjFI8qkQuRE2BZ0Sf1eJOXSyEodKY4RMUeYiKdBIvxxNqGHd1Wxb0DWJjZy84m53uopKYpy0kjJ43cg7s3oSA+GBvZhdHgP+nu2YHhwJ67/7v+VJ/cKOG4hHRXQKNbpN9/YhVVLxpDBLlRGDyCLMZy/pglvvHIR2rMUJI4cY801g0hbzzY9jiyb6ZhD5EACF7kcByfERoza21vM5saWRvGE3JpAZWR7hLTvojGXQhgU0JIDVi9vBydXndMeYMniFDrbK1g0H2hurGBBN9A9L0RTQ1lEx8Np87rl+qXQlmtFzkkh5+bQkmlE3sujwc/DD3y05vIiSiKW5kHDXlWO2GNMUiSdejqVV1dH3ymKMmmOd/SdOAOm+cnM+CDxzZt3YO/eg3jZpZciw+9zO2V8/4Yf4fKXvQKdc5rFKgYsjYqTNwO+R8UZokFki5LYb4g9hhuIkeabnxQm8S7MUDIOUTcTg0owfSEzFQ7XphfC62RD7dBr0PdkvsjxOWhbriIHcwdyTWVNzjN2xVOSXOLoWMfLnDbhgBJec9MEJ1Wb65/sItkV88lyonWO8HLV0omJ1irmcRmPV2Br6bW3F3DPNnptrIT/7Lk8f2byXVMU5VSB4iGCFIVVoxVnrFmJl196GRoyLnwxsF7o4tff+utomNdijC2qDSI68tReqaI5rqI7E6LTDzBPnuKbxACmxDCnaXBpwvwMQseY62TUncseegkzFhr6xIhTmJJgReqISMQ8hZjNe8m6aTzjy0bGC5R4KNeBoiJr5uryT21zKHWZhwCJV6r8DEUSN6oucXk0SPRb7kvMN2LFNQojdtAZhTHBClICC58c5PAURVGmlomH6FokEoOaFQ+JT+rGALppMUb0dlKJ8WQ6Z3SVNL6g6wclZL1QbCe/2SRLbqKhFGvLd3Zq1Zhg/85k7BFSmHhJrECxf0kWcl1EoDwqiRhp2W60gidJky2eEwJJkLy8VKFck9iRi+VVZRnIekkcxxDVqCjZA6Qy9E8rRoA42VA1LItgSYwv4tYEvBqW+BqSIDthpXXKwOOaOGJuM9TWpwAVJUVRphzzAq1Iieukxchx0IOs0r5y9iCxsYyzCTDPnDR8nFq8QYJ4Rmb8sy8rfBnWY2b2wjNIxuQf5cwETktkYqbimQp9ntoFmAhy3uJCMvC0XK92YpKN14PjRnyTjRvl3NNygTgaQdI4lN6T6+rJOXNujZSXNctMKmeWDL4Rff482c4h9J6kieDLtUrK5Eyc9yaqeW3JAVA0uePaqlkaFy6JTwG1vSmKokw9iWeQBGXmwfuSCOP03R8VJUVRThq2iYozFnCpYWYF3hd7bxJv6eSjo+8URZk0xz33nazWGz4avOkyesozY5sRGTwv6b3jvbLeE+/ftbcVcc82P0mT23giR9+pKCmKMmmOV5RotOqZzuYh5Zk5+mGB9+pkipI23ymKMuXQYNUHZeYy3fdKRUlRFEWZMagoKYqiKDMGFSVFURRlxqCipCiKoswYVJQURVGUGYOKkqIoijJjUFFSFEVRZgwqSoqizD74fuczBWXWoqKkKMpJp37WgCDgJ+yenMb4seZfM+lBiDCoolQsoFopozA+hkq5jKBaRRSGZmm+clcHy9nAerlPW7fd/+joqFnaqZBs3G7n0pazZe2USTad+SuVykQZxondZssRrjMQ5i8WiybOPPV1EXs8pCznSqpynrY+WzfD0cc421BRUhTlpMOZAmg0aWw5v5o1zsQaVGtUubRG18wyIGmjwyP4rWt+C1ddcSXe+OtvxKUvexm++53vwJXtDHFdffWwHgbf58fzjogTl/l8fkIY7JxvTGec4mCPieUoDPXHRewylUqZ4+Q2nh/rIDYvxcSmcX45rnMfuVzOxK0QEZZhsPkYZ/1WDAnjDNxOmHc2o6KkKMpJhcaUgYabBtQacELjSuxkoEaE6vJZXMfF+Ni4yTM0OCiV0oNIjLnrstyxTRsNNz0i7o8CxKUVIO4jm82aZalUMsJD8aJIFAoFjI+PGzFhGaYPDQ2ZbTxm1sH6mM/WOTIyYuJMG5RjZJ323JlGWJZ5uI1prMMKJuPMy/3yuLlvrhMem70eLMv92W1WnGYr3rlXf/wTtbiiKMpzg3ZRbKFIBuSZXgxqGVevbUTMr9LJBv41vk1iPycMJ6Hh5boVHcaZZgWIxtXm5zrjJk+QeAXXf/e7GBaPiWnFQhGvvOKVOOOMM8XQB3DFsNt9WigAf/EXf4EnnnjCxJcsWWK8DtbFpa2f6+l0euI4KDwf/vCH0d/fj5tuusmIGtP/+Z//GZs3bzb1fPWrX8WvfvUrPPzww8bjam1tNefygQ98AAMDA7j++usxb948fPOb38Sll16KT37yk2b5la98xZS75JJL8PGPfxw7d+7Ebbfdhq6uLnz5y1822+bPn49Pf/rTOPfcc03du3fvxuWXX473vOc9Rrje/e5346qrrsJHPvIRXHHFFfjSl76El770peaceZwnClsXr9HDuwLsG3jyg8KJ2peKkqIok4d26DhFicaMcEnDbg3yQw89hHvuuQc//OEPjUHetGkTtmzZgkcffdRsW7duHe666y4TGN/y+GY8cN/92C3iwj6kXD6HSOqkeFx88cVobGzgTuj6mP1ZKEQ33ngj3vCGN+CCCy7ALbfcgu+KsNGjoSfzox/9yIgO6+E6RWX9+vVYvny5KUdBe/nLX45//Md/xLJly8w5vOUtbxYRC/Czn/0Mn/nMZ3DhhRca8aHnQs/nkUcewXvf+1587Wtfwx/8wR+Y+m699Va86U1vQkNDg9kXxY4iREH76Ec/ip/85Cfmuvzmb/4mXvnKV+Luu+823tAdd9xhxOg73/kOent78da3vtUc47e+9S284x3vwA033GDSfv7znxvBI7NRlLT5TlGUKccKEmGfz/joGK4VQ/3db38HP/nBj/Dj7/8A969bj/vWPYyf/PAmfPUrXxfjez1+KNuu+9q1+MJn/xb/+JnP4sv/8AX8w2c/jxu++z0s6OrGmWvWYOXpK9DYkMPP77hdPCeKSWA+Iw6w30b2K/+c2DHe0Ec+8qf44pe+gJtuvhG/vPOX+MjHPobvfO+/8Kt1d2HxksVY++JzMDg0hL/+67/Gt8Sr6RaxoKmtBmWEEft+XPGCWrBw4Xzxbi7G777vfXhs40acf+55xoNj09tPf/pT/N7v/Z4x0vfffz9e+9rX4sc//rFpGjzrrLPEW/qWlF+MttZ2XHXlq1CtBCJsIdrb54iOepjfvUCEcgxNTc3GY+vp6cGiRYvw+te/Htddd50Ru6amJp6gESXuh4JLbBMh006USJxsVJQURZly6o1kFCXNdDSkZqScGFHP8+GLwW/IZ+CnXDG6DciLB8TmqvaODiwX4aGxrparGBocwp4n9uDBBx4U7+HnuEc8icOHDpvmNtN0V+8hHdFChEGABx9cj7e8+U2461d3Ipb979u7B/v37UVHe5t4LWV4rhxjHIk39XrxYAawZs0ZxsgXxgvYuOFRI3zczjNhfS996YXi8eTxI/Hy7hSRu/POO41n9fnPf96c33nnnYd/+7d/M97Shg0bjBfzK8nzxX/9VxG5CP0DA6Z5b86cOXjggQckrMfjmzfjFeIRMS89t4suugj79+83y+3bt+P973+/6c+ygjQ2NmaOkU15XKf3NZvR5jtFUSYPrTNbyiRy/H1KsWkeo8fgiWfApi6Kk+vG4jVwAECEscKo8QbmdM4Roz2E3r4BlMsBHDdlPBXXE89HvAg2ncUiEoViCZ7v4U1vejPmze+WOrhPhvrn7hiPPPwQdu9+Ah/5849g6WlL8F//9R38n//zUbS3tWKxeCNd87rQKft05Zguf8XlIhadZnR5SgTzofUPGk/k937v981xs0lv1cpVePVrXoOrr34tfiYC0tPba5rY2DTHgQnt7e04//zzkclkcODAAVxzzTWYO3eeEY65czvxjW9ca5ofKUpXX301br7pZlzzW7+FK6+8Ao8//rg5ajbhNTY2mr6lV7/61UZ4WlpacPbZZ5t4Z2en8cDa2tpERNeYfS9YsMCUPZFwX4T3cCqb7/TLs4qiTJrn8jl0k18MGodr7965C68RI5zPZI03RDyPAw0C9IsnlBHD2tI6B/v2HxKPA+IhBSgVKqiUyli5dAEWLV5gPJutW7eKUc+KKImXILv5tojM+RdcYOo7IkhyEBRD+cdRaxQUP51KNkUBypUSgjBCNpdLZDR2cPsdd+Cl7J+S45DDhROFqJY4XNxBVjwjiihFMJJyFDDbp0Wy2Zz8lZ0JQ0PDRiS4Tm8wknrYjEgvhwLHJj16VDTojnhpJTmPjFwTCrUdgEHPMinPofOJ0Ce1J1AL7L5NPRJY7kTC+2ZFh8erX55VFGVWY8SIwiBwuLYvRpP9LxQJGnSjBbJw5RcGkXhMMfoHRsQQ57Bq9TlYsGgVYq8BhbKHwZFxKVfB+HhRvJEQQ8OjqIgB99MZ5HJ5ET1jJWswEonOMDgiSFnZt3hY5VgERbY6HjLZBmTzFB8adDG0Ih6XXna5iJR4OxypLsfmiJBlco1SNmfKueKxMS0QcTHHL9AbSqUy5thYKBZxa21pNQIRhswj+/dSKIpX54haU0yDoCJ1sgOMTYKx1JGWvxwmnrwfxTJmeHtcM9VSTblCr5L+J4fSJ9eV+2D/E69pUm72oqKkKMqU8+SnaBpoikKIUCw8m7lCEZdKqYqg4qBcjMUriVEYq2J4mDM1eFi79gLM71oqBrcRe/btM/0wBw8epDqgKB5MKMaZT/DG9ItRpgCZFTHcRpTMT8y4x6HmkppyReQcFCUeiMEPQvH1/JSIjGwX0fGspyHFKUySBNmEcuiaOspSrlQWr0eEkIMTKBJ0C7nbLIVF9s3jsYKVy2aMWNJDondkUmtiEgTJy7P0dtgfRk/ODkc3sI5alPVls2kUCiVTB/Mwr81v47MZFSVFUU46fLoPxGhTkGiUqxIi8SaKhbIRp9aWdrHxHkaGRrB18xZs37pd0prR1JhHNp0T4WBzWx4jo6PimbC81CNpdJIIvYia5a/9KE3AgZ4Kfn7XNlRkZfeBcTz82E4UAsklGnSoP0RJ4gPDAR58ZAfGkvdbRfCAx7b0YMfeAmIfeHjTPhwWLy6VFk+JaiW74jlQl4bleHfs3I2+3n7xWkRoqF4C+8MSr8asShEpG8Qoybk64Iu4oyImFELO3MD3t3gGfHdL6uYByNr+/YfM4IuSKGkulxVhHjQjGU81VJQURTnp0NiybykUg0svif0nFCjOZZfLZTBv3hwsXbJQBMjBwf278eADd2FspBcrli8w2zrndIq3UjXlA/b3VClubPY6YvgTEjniX9EAbN15AG2dS1CR+MGBcbTOW4KeIaBvGHho406URGS27zqElauXY8Om7WBL3I4dh5BtmoOD/UXsORSa+OH+EYh2TFhQCtDgQL8Zvt3d1Y2RkVERpkHTpFYQoeX+h4aHzSi+sgjRQP8QRkfGpcwI9u0Vj09EKo5cbNks+xRljMQjKxYrIkBJH9i4lCuKd1StSFnxEvt6B/DE7j1GEE81VJQURZkGkqYsM4FqSEFJBhxUg5J4DCIiURltbTl0d7di/vwWtLX4qBT7xGCN4YwzVqF7/nyxx47xkNjsxeHVrM/2Wx3hiKfEbpm2OfPx+Pa9KIr4DIxWsGHzLmSagE3bhrHmRSswVgSa2+bh/vU7kc40mLESbe2d2HuwT8SrhKZ2T8qVsGP3ftOkx+30zth0NjIyhNNOO800yXFwQ1kEliLFIeyey+HuDdh/4AD6xNsJRSEHB0dMX1NzU6uIT0XqoDBRZVwcOtSDw1KWx10qlc2MFZwlYv6CbvPSbntHu1mPKYxHn/IsR0VJUZSTjm2+q4og0UtKPCVZhhX09B7E5i0bsWHDeqT8CPmcg6ZmXwy9i9aWNE4/fRn6+vqM0S+LIJ122lKpkaaMBj1xHeIneRAcQsAA5BvTWHTaYuwX56ShqQXnnLsCu3eH6OpuwcFDZfFegMWLUmLsY6xZ3Y3xUWBuZzJs/ayzF6Chkc1pIS688CWSJoJEURB4Ps1NTeJVbTcCOTw8hKbGRtMsyXen+A7R6JhULvkiWU+nOSCCXmEOlSoFKTlgDgDJ57M1IfPgy07SmZQZANHb2yMelnhfEvfkdDn60BR70rnOflSUFEU5qRivhdbUdcTbiBFKtCyGukSvSUxSKpvHgQOH0dczgMG+QYTVULykihGuscI4Njy+AVt2bMGBwz3ileTFzqfFeOdRLon0xCkx+uzjCRC6odTP96eyUqsP9thUxvcg4+zC6sXAkjkeSof24yXLPZzZBZy10MWq+YBXruLMZa1oSkv+Qj/CErC8s4IV7RFaRIRWzK1ikcSzUl9GLKgnx89Re20d3eLBdeHgwb2SEML1OPCBfV8icmZ2iRBz53WIl9OCtBReuGieiFxKhKuA5pasiF1BxJfLkmx3xENrQrE0Lp5SAS2tjejsbBcBK2KBeEvDI8MiTh7GqJqnGPqekqIok+a5vKdkm9a45MwEfFl0eHh44pMNfEKOAjbDcaaHAFEcmT4ZNodxO4c78x2gongYhSI/HZEMseaAAXogc+fOwX988xu46KLzjackPkmyP1Mzl0cCm9zMgDmJ+xJEw4znQ0QbZV+cbZufoUi2+cYrSmb05vFweaxRbjw3ej083vp8XBLGj87DUXrJO0hJXm7n3HZz584122x5Llmuvi673XpaU4U9ZsJ9TuV7SipKiqJMmsmKEgOb4KxhpUHzHTGuJgezs7mN+fm+T/KxOw69NgIl4uCJarA6ekWJMCXv7nR0tJl4Ks33iJK6zM4F1kYxMtR2RPvuMx/rkkChMsiS2+TwTL+NEbDatnoDfTQUDLvNCinPsb6MPX+7zqVNY6CXRzF+ujw2zqXdPtXUH4uKkqIoM5bnI0o01sZDkiWDJBplMIadGWtGjl6ENYrGSxCFsO//uBwcIFFOO8TZFegdmXeGuFfWeRRJOdku/9g3xD4bmlQjgtwm+2Bp68VQICgshHPd8RhYL9O5/WhosFlP/THbcyW2Puv5cN1u47K+TD2sl3USW9bGbfpUYo+LTLUoPfWuKYqinARoxGhcaaTZ6W/T6AXxe0hccuodmmdjomvuiutRxGjEZVUCZ0CIY3pP/DCgeFuSz9hHW3AiUHzEoDsSZJkWIYvDiqQnMyiw/4dx5klJXUG1bJbVSomSZQTg2QwvBcKKmBUOlqEhJ/XbWB/XuZ3BChGXFCubzmDL1ec5nuOZjagoKYpyUrAGlgbZPt1bY8t+Jc4hx9kYHNnOIJkljcIkImTycz0pxzoYOF2PL8KReEc00syV7OvJiDGXvEn6hEqZ4+BXbDlkW45O4kk55rOeEJvS7DLZ57PPLWf3zyXDsbwZ1kVsnvpwrPqZbq9d/fJUQ0VJUZSZg1GUZwnmD02XWRGsyJAj22Kb3wQbIbU4M/DlpeMJE2WVqYZXW1EUZRZSE5enhATKVFRbJoHbaPKs0KjYzERUlBRFmV3UO0bHEhXZxq4XZqEoPVmYlJmOipKiKDOEeungeK4jvydvqzGxaj2kOoGqRY9KVWYBKkqKoswQqDCJb8Oh3fzLGR+YYrAi9JQgsmOCxElNhTi0gME21DFMCBQjzyUoJw0VJUVRZgYUFk5IKkv+aJw8s6wpgxWf2upEsNTF65OV2YWKkqIoMwRKiZik2oi3RI74q2EjsrT6VB+UUwMVJUVRZgYUlrpwdCvdkfRj/Wp5yJNWlNmGipKiKDOCUIQkENEpy5LzH3Dd6MuEwEiEL8CC0xBFiOJAUiLJy94nK03KbEdFSVGUacdMmyOCNDA2ZqYOqoahmVWIBsoVsXFiEaFqRZQqQFAuIgrK8Ok5yTbOJk5xUlE6NVBRUhRlWrHzuYVRiObGRjMPXpqKVK4gGB3D9kcfxX233Y5N992Pxx94AFVJ8xxHxKkkBky8Jk7jfTSqT7MWnSVcUZRJ81xmCT+a+slFDSI0FCYnjOGHEfbv2IEfXf897JElxHMqFceN2OTntuOt17wTL77kYuMfwU/LcfD52oHHfbE6Bn3kPmHwHnHuPaKzhCuKcsoyIUiCy3ipIgLnYPfGTfj6v3wJ4fAo5mTy8MaKiIdG0e6lcNbpK/DoA+sx1ttrJiSlU3VizKEyE1BRUhRlWiiVSubpOgj4qXB2F8lSPKXPf/pT+PCf/zk2bNqIex54AA8+tgm7+3pRyWTQvmwpmlubEFVK2LN9O1ARN008Kw5/4EcnzAciqFBHqRTFj4GfeyD8XpKFT/4M9QLJjwoSm4/b7HHaugjrY2A+u7Tptl67Xl8/01mf3a/dxvJ23R6DrYOwjK2b1MdZhusM9jiY34bZgjbfKYoyaZ5v81198CTPjT/+EXZu3YbTlyxDml+a9XwMDQ6it68PTS3NWLZ8OQ7tfgzFsTG0d8zDlb/xDlN3mMnK3vmU7SBl2pO44yPP3KzfUiwWkc1mTd9VRoSO0LDzMxo2H5e2OYoG3X56gksafC5p/FnG9IHVfSmW9XP70R8J5DaWYRo9PKbb7RQgcw2kHAPz8pgYWDeXzMs6uY157bGyPI+J25jGvKyfx8FPghCmPdvnNp4Je26EdWnznaIopxTWyNFIExrirTt3YusTT2DZmjVon9+NzsWLUPU9LFmzGq950xux8uyzcfqZZ4r5c5FOZdDfP4BCT6+UTl6wpTFLDBoN5VMNJPd14403GiM+MjKCzZs3Y//+/fjoRz+Kxx57bOJYDh8+jH/913816zxOKy7kwIEDEyLAY6aYcJ0CQCFgPgoe4/QEWZZGfGBgwJS/7rrrjBCyHOtn2Q0bNpjAdNa5adMmHDx40NRhBYnXivtk2n/+539OXDsurbBxO4+D+bnvr371q2Y7RZPbZwsqSoqinHRoLO2TPqFI3PfAeqw5ey0yzS1w5Am/EMXwGxrRMX8BDogAtXV1YduevShVIzz08KP47//+Pv7r29+RR3d6ZCJyUo+RIlPtsUXpJz/5iRGWD33oQ1iyZAn+4i/+Au9617uMsbdC+eMf/xj33Xcfent70dPTg/HxcfSJp8b197///XjooYeM0f/BD35g0hnfKYL6+OOPm2379u0zQnD33Xdj9+7d2LFjB/70T//UiN2yZcvMsTz88MMmLwWFeT784Q9jTLw/1vfnf/7npszQ0BBuuOEGUz+3/fKXvzTH8Mgjj+AXv/gFhoeHzXW75ZZbTB0Uur1792LdunVG3NauXWuOY/369UboeH5Hh5mIipKiKNMGDSOf7GnA582dh+6ubixfvkI8oSxy+QbM7Z6PcXocmSzGCyU0iEj1DQ5hyfLTk5dtpSxS6aeK0jHsLQVndHQUH/vYx/Dv//7vyOfzeNnLXobPfe5z5hhoyClce/bswd/8zd8YQ3777bcbr+Xaa6/FvffeawSHIvGlL30Jzc3N+PznP2+M/s0334zPfvazRpgoMBQ+ekd//Md/bISCYkNvhUJ25513GtHjsfD8KXpveMMb8L3vfc8I4jXXXGPq/sIXvoDTTz/deFdf+cpXzH6tELW3t5tjpFgx79///d/jgQceMKJ76623GpH65je/aTxDih+PYbagoqQoykmHxp9QCAYHB81TfntLG3Zv3YmwUEHWz6B7bjdy6SycyEFTvgkH9x3A1se2oFAJUBXTNVYsIZ3NiqfEpjWKknhMx1KjGhSAzs5OvPvd78af/dmfmaYxxiks3/jGN0weigXF6Otf/zq+/e1vmzQ2wbW2thrjP2fOHKxatQqHDh3CZZddho6ODuNNvfrVr8YFF1yAV73qVaYfh4JEYWDZxsZGnH322WhrazNNezfddBOuuuoqI4j00Nhst3jxYiNoW7duxUUXXWSOlULGba95zWvQ39+P17/+9Uak5s2bZ+praWlBoVDAo48+ajwuXlPWe8455xjPrUs8S3pcH/zgB/Frv/ZrE819Nth7MNPwzr3645+oxRVFUZ4bdE1EBzjAgB+b8P0yrl7biNhMt2C9F/lrXJgjWMNIY0oDT7rFU2oR8SmI5zAiHoFYZvSKwR/oH8BpCxeaQQ85MeqbHttoxIFG/A/+8ENomdMBTu8QS33JkQjUpqMeuWnoKTq//du/bbwN7peeC/tzVq9ejTPOOMMI1Kc+9Sm87nWvM81kCxYswPe//33TbHbuuecaL4oCNXfuXDz44IOmTgoExYbixHromVAQ6GHRO7r00ktx/fXX46UvfakRibe//e3Gg2F/FgWOzXrkbW97m9kHBdrCY6R4NjU1mWY5CgmPhcKzceNG4+3xOrLMypUrzXHxOJhO74hi9G//9m/mfHm9WJ4iRm/tRS96kRHF44X7ITznh3cF2Dcg17qWRurjzwcdfacoyqR5PqPvKEg0ZBxkwKUrHlGziFKveAVuyjPNYjT2NNxdnfOMWPWIAf/+j/4ba886AxtFND76kY+gtXsuYldE0aEgeXBp0Y4SJRpSwn0SGmMacnoi9Da4H2KOQ7Yxnx08YEet2SY+YrfXN/uxLJdMo5AwD8sznx2wwLx2f3Y/zEPvioMUmI/1MC+XNjAft/E8uI3rhMdPmM59M511s0nQnhO32WNkWR4P98101n081OdlHTr6TlGUUw5r6Ggk6X10iMfT2NKISlhBsVLCgiWLcP7FL0FjazMCN0KFE7CK4gwXxrHrwAG8+IIL0D88KNoXmsF2bIwy0vMstpEGmvu1hppLGmnGreHmdooWBYliYUe+EVuGx0/sNqZzaY0z66HYMM3WSdGgF8OyTGM93AfLMq/Nw2ti62dafZ2MU4wYrFdl9800lrcCxnQrnrZuDn7guq1/pqGipCjKtEAjykBjTMNeKBUwODqExctOQ7Yxi/mnLTRC1NTRgoysxz7QPzKIeQsXYG5XFw739SEnBp5TOvBJPfk9szBZ407jbI0yDTnjNN408hQKHo/1dnh89YadeRlnINzG/FxSBKzI0FNheZ6jhXFus8dh98t1KzB2H1b4bJ1W/Lhfe/y2rK2PeVjOptt9M43wXKz41R/XTEJFSVGUk441ujSuHHzA/pd8QxMaG0WAnDSisSqcYojhniE41Rij/cPYuXELNj/wCK48cxm6UlU0poCGpiapy4cXO0jTSJt5HURsaKOpGXXuk0gBIs/Hvt4iIhGcSjqDsnheYTQmmwMJ4uW4eQSReG8ZEUqpsxKnUBEDXohcWaYwWpVqxeBX3BQCP4Wy7LEsZjTw02BHSMQPFMp+2IzIeWJdySeOnBmL4Ur9YRCbJdNcVzw0phltk+NPpUVUxLPx+G6T1BXSm6NQhiakZH/M73kilpIvkuM0+aJEXAnFiFB0eH2tGFkRsuI1UwWJqCgpinLSscaRS3oUbL7bf/AAKiJS23dsx3zxhErj4zht0UJs2LjBNO319BxGqVTEgd070JByUC6MGUMulYjwiCmjba7ZZzOujLswQbwNWbIX5sFH9mDD43sxUgQO9IS49ecPsCcM1SiDTVv2Yc+BYTy+bSjJu+EwNu8cwPY949i2cwQPProfohc42FeROvbh7nt3YmAEuP+hA7hv/S70DYXwfBdVTn0kiEZi546d2LtvvxmJVyzR00lEwpd8FKiwNgCOeSkw1WqAgYEhOc+yGZywd89+I0aelOOpUZxCKZTLZbB37z4c2H9w4l0qDsygyNOzms2oKCmKMi3Y5jA+tXOY86FDB7Bv/xNobm4Qo1zA2OiQiA77STzcdPONKFYKWLCoW7yEMqrlEl689kWmKeqIp5B4KRzzxxRxbkSMQhGY2IgMpWKsEKJ9ziJOLA5XvIiW1iWoROKhyLb5ixeiY14rRgoxegZFOHJtiL0cKmFKPKdmhHFG8oowBL6InnhSQQpDw0ChBKSzbRgZC0SQJJ4WD1CEo1ypIp3JYMmSRWYUX39fHw6IR1gVMervHzLDxjdu2IiR4RFs27odu0S4OOpwy9atRmR4Lhztx9F5Bw8ekutRxMjoKIaHhkS8xCuU4+/qmme28zqyGZLX0npHsxUVJUVRpg0aU4oTPaUuEaYtj23CpkcfwQN334X+A/vxsx/+APuf2Ils2sW4iFR7e7MY5DIKhXERsrkQF8LUIX9qFfILS4nDdOTTf0lfE72ml1y4FMVCgM2Ph5g7R/KEafFuxENh85os71+/D6evbMO6e7ehXzyWnr5+LFmaFuFjXrM7dHS46OzsQKFYxqJFwJo180U89mN+d0YEKfF6PB4Xj0MKspzttyoVi+IlJecchIF5IXZoeMgMfuCEtBRZXgfXZR9TGa1tbZgnwlMSEd61e6fky8n+25EST9H0Mcl+WAeHjNu+LHpLsxkVJUVRpgU+0VtPiSEj6+t+8QvsFGF65O678YDEd23YgIPbt8EtFvDmq1+F8YFeM1ErTX5393yE4o2IZRbrnwgTxccG9uzwx7w0dBwqvuHh/agWh7FkgYfD+4ChvgMQrcOh/QU8vrEHKS9Ez6EyrnjFCqxaMRcLulpkH8BAzx6ce/YcPLFdXCPZ5UjfYbziktMhGoTCYAWXXngmfO5USDxAOT/fRUUEdMfO7XjwofVoa2sxc8QePHAQURxiWMSouaXJCFgmmzbbIlGwsbERjt0w675sY75sJi0eZJMITlXEst94YmyW3LVzhxkyz6Y+zhDBF5GNSM9i9D0lRVEmzfN5T4nQe7BLp1rBjd/7Hr78D/+EVLkqnkM16SoSD2bx8iV4/etei927xFtIx2hsb8ebf/u9iLMtsvOMMdDJAAd3YnxDin+4Xx4Et8pivJB4PPkm7jPZLrsRb4PDtzlqTbYn1TwJrtaqOQLXLbX0o4oZuJ+hoWFUymXj3YWyA49Toj8LLEd9CYLIzJSeFS+qsTFf23pyMfenJnYUXX1PSVGUUx5H3IPXvva1OOdFaxFXQ+QdEQnxhBpdH76I1L4dO5ETtUil0sg1iKpk83D8tJkD7wgUp5pGMH0iJKPyGnNAcwNFVDyZuGjGzmVTMdqaPFlKuhRMi0uVEllLibylxC3iGDtP1mksXTPBUVECx9xJmtSdhNCkJzt7MmEYoK21BXPZ3Cj1H6/tNvZequOgiPaOduRzycuwpzoqSoqizAgi14UjhnfVGWdg/oL5yGVzaG9pRbVQFO8og66OOVjUPR9B7GBO10Kx2nx3SAoaI88/Rn3EqDHUkkyQdBP4KQo2e3Ej3x/i+0JJMGPzYvHMorLEOezBDo2wfhfrro9zWavL1M1tTGd4MmymTDyJxMtgf9HxIyWNlyK7eE7lZi8qSoqizAhCsblR2seqtWfDTacRiSWuBmLsZRmJmCQj16ooVkIsXLLUvAdE/ycRGYFuBRNFLJgUinUzdZqfkQVRCEnkRhG02ElLGj8JSD9IEsUzczjaQdaPBK6LCxVLXLYn67U0qSOBFdp0xp+KbaakQFGYjhfbJFbffHaqo6KkKMrMwPVQrFZxwaUvw8KVK+Cz/0TEKS/e0qGePmzbsQOFUhmlKEb73G7TdOeLNvDFVNPfY5E4m+oSeYpEuJI4BYxyEMh2rlOQQhESxik4bKCjQNUHKzasPglMp5DVpzGwLIc9HFs4OJDDvj/E+PHA/AwUJFvGitupjIqSoignHRpXa3CtoU2JWjTEYti9DH7j3f8Lyy44H1FzMyqyXg5chFUfB/YN4hVXvxWp1k5UxGuiAfM4GwMj9HLovRiPhp9Fpz/jSkiJhDA4icRIXpOdcQnMbdcpKfXBYprPuDSBv1qc6Qy19WNhPRwrLMfr8TC/DZYXgreko+8URZk0z2f03VOe+mWdRjcol0VoaPhjHN6zD7u3bUPPwYPonjcPy5YuRfua1aiavpkjRr7ecCsnHt4rK4g6+k5RlBcEnAqoylFyHAaXSSH0XLQvmo8Lr3wFXv/bv4nzr7gc7SuXGYGjCLF/hsE2iymnBipKiqJMC3yyPjrwHVgOSijzHSXfE4FKI0z7CFMeyr6LKCUeWc1LsgMG1Es6tdC7qSjKjICNP74jHpCYJU+Ehg14bPoL2OHP9FQGlViMFsVKBIxeknLqoaKkKMqMgKJkX0ZNOd7EAIS0m5K4CJGspZy0WdajntKphd5NRVFmBhz38KQg3pIJiQxRpJJxdcqpjIqSoigzByqODaQ+bsVKOaVRUVIUZWZQL0i1YHWI4+s4Oo9BObVRUVIU5aRiX5itf0/JrHM5EfiW0rFhsfry9fUosx8VJUVRThpWTGywU+lweHccUYqSrx8lI+9MAROcWpDMcGRD/fxxtg4Vp1MDFSVFUU46FBArLPxSqplJu5ZWH6zY2EAqlYoZEn60ENXnUWYvOs2QoiiT5rlOM2SFg0LEz3eXy2X4vm++mMrA4d0MxxIdCwWMeQqFgvnqqhU1+wIug3Ji4X2w15UPC1M5zZCKkqIok2ayokTDRlGqVqsm/od/+IfYvHkz0um0ESlr4OyyXqBsGZa/9tpr0dXVZdKJfWfpRBlIJUFFSVGUWcFkRYmB3g29HIrM7/zO7xhBufLKK00aDZwVonpjR4PI7YcOHcIdd9yB//zP/8TixYtrWxMxsuFoWBfhNjYBUgAJ91Nfxu6T6cQKHdetGDLO9HovzZ4X48xHcWU+Bsbr90/q98O6uOS6Lc805rF1Mb2+Dpvf1nM0ttzTbX8u1NfBelWUFEWZkZwIUWJ4z3veYwzo3/7t3xqjRwNHsbKGvVQqGSPNdOa/55578E//9E+4/vrrjSixPmIF5GgDabezuZDls9nsRLypqcksuR9CseK+KVws19DQYNZZZyaTMfkY7L7YjJjP580xMg+Pv7Gx0SxHRkZMWktLC0ZHR015BtbH82dZHgvzMLAOrrMs983tPM62tjZzLQiP1V47CmQ9zDs2NjaRl8fOuK1/svBYbPmpFqXkqiqKokwj1sgz0LDSaDONS8J0Gka7TridaQzHA43pX/7lXxoj/bGPfQxbtmzBT37ykwmBIHbZ29uLz33uc/jxj3+MoaEhU4bbhoeHJ/ZHUXjkkUfw2c9+1ogHvbZPf/rTE57UH//xH5u0f/7nfzZNk5/85Ccnmiy5ncdDAbTGnCKYy+VMOs/35ptvxkc/+lHccsst2LRpk8nHclzyGFiWeQnXmb5161Z8+ctfxjXXXGP2TViGYbbgnXv1xz9RiyuKojw3aE/FRnMQt5g+Md5lXL22EbGfbOBfeUaf8JTqsUJDw/qDH/zAGP6rrrrKrNNj2L59uxn8QIGgx0HD2traarbv2bPHeEtve9vbTJrFGni7rIflf/jDH+LgwYNYsWIFrrjiCjz22GPGC/mP//gP3HXXXTjrrLPw/e9/34jIrl27cPrpp2Pu3Lm48cYbsX79erS3t5v9sX6K1Cc+8Qm87nWvw/Lly03aggULsHDhQiMkFLMPfehDuOSSS4znxDpe9rKXGdGgmC1dutTEDxw4YISKIsRz5T7Jxo0bjRfH8tznF7/4RZOX9bJ+el6E3uL+/fuxevVqdHZ2Gs9xw4YN+JM/+RNzXj//+c9x2mmnGW/t+WCvKe/Zw7sC7BtIPFfLsa75ZFBPSVGUaYeCYZ/2rTc0b948NDc3G7HiYAZ6GcVi0eRjmIwHQE+HBvvVr3618W4efvhhI3jd3d14/etfj0cffdSI1pvf/GbMmTPHbGNz26233mr2TWGgGPGYKAwUDArFd7/7XaxduxaXX365yc/9nHfeeeY4/+qv/sp4ZCxDcXn/+99vRI9eDet8+9vfbrwoiuNPf/pT4+H80R/9kTnfb37zm2afFCIe6zvf+U783d/9nRG+n/3sZ7juuuuMuFPUuS96b/Q0WS/rohiyafTb3/72xHWrDzMRFSVFUaaFeqNI78cGChObpvhkT2HiUz77Rug12CYrGmIrSE/3hM6t3IOYX8mUCF5TUws+9Tefwe++939j757dqJRLyPCTGJUA1VAMelhF//AgDvQcwhN79xiBCcXQNzc24epfuxof/P0P4Z677pdjAPJNDQjiChpa88YzjFM+wjhCRUT1spdfhmu/8Q1s3LQJ551/PraJ11cQobhDvJZvfuubRjjoDfJceB700Oi9vetd7zIixWZA9g194AMfMCJEsZk/f75ZnnHGGTjnnHPM4JBFixbhJS95CT74wQ+aeniOXDLfsmXLcPjwYWzbts2I2P33349f/vKXxjukwD3ddZtutPlOUZTJQ7s2yeY7a0AZbrjhBiMAZ599tjGi9EbYxzIwMGAMOJuq+PTPJY05R9/dfffdpu+kvllqwtDWGVwemTkWSUv7WaxZfQbe9va3YPfunTj7rDPQNa9bPLG5aGlrxfwF3WhqbhQR2YZXXP4KrFqxEk0NjTht0QLccfttuOyyl4vX81Oce/55IpYLsWXr4yjK8fz6G98Mz8/AN02SERpFQNlUd8st/4NqUMXvf+D96OjowKrVq/HIo4/gkosvxplnnmlEhR7Z+SJc9Gx4LhQQDnZg/xLLsMmQYsx8bPJbs2aNabKjd3fhhRcaL4keEUWI58iyFPMLLrjAXC+KEJs5H3roITMgg0JI0eK+nwv22vJhYiqb73T0naIok+b5jL6jt0MDyeY6igsNJpu62HxGw0po6GiQ2ZRFoWI52+z2mc98xjRhsT+HwkZYJ2G5xLBxIAAD18STCWSfgXgzQUkMeQZV8ZTSrs+C8ogu3pfkMsPFU2meHMJyBalMDmF1BK5PI5xFHMnSlRNy6ZFUJEQiqA0oF4F0Ts46TkbOua4n3lEBDXJe9Hp4Tr6fwhj7gmS7HWVH8WF+ew48T/alsTmPgsxz55L5ueS5sSmQ+Xm+9V4jy9pRgLxuFB/mtR4Z4Tqx1+p44PFZ0WFdOvpOUZRTHhpNGmA7Ao1iRaNKEeITPw01+1YoGhYaQmtsjw3FKJEn81fExEt7IipsahPjns6IleaIu1jEKpl/L53KimGU7dUYKVGZsBzAy6QRuWJ6RYgiMdCh7DOsiMH3UsiK91UaFdGgrZed8Ph4XDz+tJxPGIrn1Ng0IQ5shqRnw+Om0PAczaGJSNjzsQM6KCzENCPKOuug8BAr0hQqW5Z5mJfXkfu39XHJ/FbUWM7ud6ahoqQoyoyAxpKGlM10hEbUGl4aVhpcLq1YHZ9RpQH3RStSEjxUpUilKkY+n0EQy3qcwnhR6nIyiH3xnCRf4LgoUedSPgqS183IMsiiGDfJdvE+xAMKHA+hK0IlwhaIZ5TNp+U4IfVTSCg0kREU30+LYHgYGRmVY+fx8BxF/GSZoackIij/EMgfplWlXCz7j+VaiHJKnWz8pODQVHPJF3XpHSVTLXmeLyKUCBuvjxUcYq+d9Yi4tGLIuPWYZhoqSoqiTAvWgFrDySXTGKeRpfGkl0RoQO02wrj1AKwRPhrTdChGncIUx6wfEG3AjT+7V8QA4ikB23YehpfPYX/fOO5/dBeKIdA7DNy9fgfGOAhQHJWS5Hvg0T3Y3yNeiSQ9sLEX+3urqIrXRYFyUiJu8nMk7/j4GLZu3WZG39FrssdG78jisplQ0ilgDs9HzmFwYNB4X4wbb0by8dwK4+PmWnD90MFDZug3q+R6T0+fiRN6Rgy8PjZQlOx1Y5xLBm7jcqaioqQoyrRhDaU1kjSYtvmJWKNK7JM/1ylIDHb9KdBY1wy2XYojgcce34kly9agVAF2PVHBE/t6xVsCBkcrmNu9FFt3DmHHE31YvnI51j/yBEpSZvOOfsxbuBj7DhXwxH6OuuvEod4R88HBquyfDhD7m3oGes17RgsXLsLQ0LB4R2Moy46KhRJiyXTo0GERKyknajg4OIS+/gH0ixjtfmIP0uI1VcSN27FzJ0rlisRFkIslETDfeFJDw6MiYoFcHw8HDxzEYRGkw4d7jpzj03Csa3PM6zWDUFFSFGXaqDeQFBk2QbFPhkuKkBUnrlOA6DUwneJlhelZkV0Y2y3Wbl53N/buP4CiiNKiJWn46Tyq4hEtX96GsdEi5ne1oiHfiG3b9pv+Hh5eU3Mee/ccwujICBobgOJ4UbyWg+yemoCNbGOjY+junm9EtampGQODg8brGR0TcZJzam1tQ6+IyaHD4p35KREaESg5sIbGRskzbjwlNselUmn09vfjoHhGFLBAPKqqCFZDvsGMuBsfL2BOxxykpA65DOYYTyVUlBRFmXasGNlBDBQb9i3VN81RwGyw1G9/EsxiArdLkDhb8hwvwvxFXeLplFEOxPsSC8ihBDs3DyKuVNEqorNquXgt4yNYs2IexoYq6O7MoTUPnLmi22yPysM4f+0ZoFxm5Fg8qdyNXbS3dGCneDpVqWdkeBhNjU2mL6lYKJrzK5f4mQ7PiAr7xegF5kT4jGLWziOVTokYZowAJufKri3Jl8uhp4eeWN/EsO5kMAO9RVP0lEFFSVGUaYXCQiNLI0wvyPShSJz9MPQ66gNfoqVY0QOxZY4NhYidQmWJMYgCSdZyZRyVoIDu+RnxVIC21iaERcCPQqBSQu+BACVJf9HqFWjkqPDyqGyL0NYknlU3kBWLedr8NnS1uXClSl8cNZdDxKsOWhubsXDBIvMOFfuM8g15EZMsGpsaxatyUSqX0NzSYrydpuZm8XY6jAh5IlTMQ4HiOY4XCmbIeXdXt2muC+Q88/mseU+JYs13kJiHisVtT3sJZin6npKiKJPmubynZL0aLhkoQDSyHMzw1re+FX29/fL0n2GOiXymma6Wn01kHKNWEfEIw8AME+d8cStXrpxoxku8C2ulWU+tLh6ABDaXJeuCJDE1GRD+9DDP0dvtHiaor/cojiUaz7Q/DiHnC7gUMo+u3AzAXP/aifBhQN9TUhTllIJGjh4RxYTNWHa2hv7+AdNExcCBAFz29/VjcGDIDB7gAAG+q8R3lliew66tID0VGkmaOPFkzI8xEToJHgNFTwLhtqcL5FhpT2JiA+s7OjyV+rqODh7fpRIxdus7rV5AqCgpinLSsU/VFCd6ShQWekQ04txGD4l9KfZ9HD/lJ0G8K0/S2K9iR+NRnI4X1n10OJGciPpZhuc8mbKnAipKiqKcdKzRZWc9+4k4n5tpqhNxsk1FDJlM2vSzUIyMiZY/mWziHXGCUpa1sx4opwbap6QoyqSZbJ8Ssc1uXOdoNA57Tlq7JLNRoBq1/HzRlHnj2txy9JQoWMQOHbdiNtvh+c2k86g/Hu1TUhTllIBGi4EeEQNFhcEMjc7l0NzUbEalNTU3mZF3E8GkNZspcrjOmbQ5Nxzj9JIYbJ0nyjBON6fKeUwGFSVFUWYEtMOiK88alFMbvcWKokwL1nOy4UlNds/A0eVMWeWUQUVJURRFmTGoKCmKMnPgmAYN0xfMIvnZtSRwUEqSxje9jtutnQQqSoqiTD20aTW7Zs1cYuIEsyJ/uD3UMK1B7kOAqkQj80sS+dFCzkkY1G4VPxeSjHacCnRIuKIok+a4hoQ7rsRiebY+8nQ9EauzPqEksg5l+nDlx3tJeO+SCO8kv+nEdLnPcr+/cVsR67bV+vMk34kcEq6ipCjKpDkeURJrZT6Cl5i0yCwTWZJYzK+f1ozZibFpyvPBerS8FxLEKTKBSbxvTObcfN+4raDvKSmKMlvhRKppExxkxIKlxMp5Yt0kGKsnWTTMnEAF4pKLmiDVJzv1GaYAFSVFUaYUeks0NJ4sHX6ulYIUiYcU01NK8vAR3GxyQg3TGODyJsn9cEV43KrcntDcInubCJthmWWqUFFSFGWKicXGFeCys9yVEPNbQOOAL0tvTLRpDKEzIvlKYpDYc6FhugKJ+O12NxA5KopPVJB13hdJol5JiGPOsT51sqR9SoqiTJrjm/tO/kSjspYSEcpJLhfJ92WZwxIhIxWln/YzFMrJIJC7UBEF4t1zMAZP7pQvaW6U5802GwK5ndfeNoZ1U9SnpKKkKMqkOS5RYjMd51qVpO2HgNvu6UHfaIzIzZo6WNKNq4jEqIUOBz4o0wWHpDRlKzhzVRMueXEbsuK98iOICDgTu9xHWamIJ3XdbeNYtzWloqQoysziuEVJ8pQk6db7i/ife/eg4nehGjfKNg9+HEioInBjVHVyu2nFF8HJRkUs6irhvW9fgFwYIc0nCvYBOokolcV7uu7WEu7dmp4SUdL/AYqiTC1UJr9sRn8XowhhKo+K56Hqh6iKkat6rlkPRJAisUgnP9BrS0IogeIYyDFHnnhuriPxZKAg47Hx5Og1pBG7KdkmG32v1gxpj99JAt/PcrjNlXKe5JcgabGUeeoxzIwQuL44RS2oBnNME16Kn2PnQwVXJNDblTWzOlWwfkVRlKnDjCtOi3EW8+w2IKg0iuERD8kpIhXHZgBE7IorJdn4Kb+TGYyBFQFKgqxLSHk+0vw+k2gpO/99WacnIBngimeXEuvti6GO+J6vHH8s3kVKxCYnBt3Wlwwc4I/nKemS34044EOugZQ51rHMhBC7AcYxKrGMOReIFwt5YIhFnAIRZnmkkHPwzPlMFSpKiqK8gBETyPemTBCrK8Y2rAZii0MREzHUIiJs0oITiCdREu+pJF5TRUJV3IgyvFyMcjQm6UWUw2HJUzkSJF/klhE6EtyCVF8yZdyUzlrxTKgoKYryAoZjA2kGHdPK6ErI+L5oUBV+WEFWPLiwOCregeiVCBa/wGo6yIzX56FaCZHN5OkwIeWnpA4pG1Hg+B6W+B4cPm2cLImz6U5WgkBF6ZlQUVIU5QUMRYY9QpGIRiChimppBE151wSEo+hsTUPkBn6QQip0RaxiicdIsRmrKmJTcU3I+1nZ5ktI10LKrGcg8cDhu6imTMYV0VKeFhUlRVFewHCqWFELVGRZQVAdx4oVHbj4ojyWLslj0cIOvOjsJjSlXWTBt3hK4j0V4UcjIjQFZOKqhADdbQ04fTEFqYR0XIYXjKPBC83SDwsmjWXbROgWzGsQ8UsmMw1Del1KPSpKiqK8gOEAhwCuR2+piljEY9Ei4Ic/eATbtz2BfXu2o7EBOPecPF56gUTCw7jwgg684uVz4YQ9uPjCZlx2cQM8DMCLQ5x9ZjNaG0u47JImXHJRCp3tEV78oiZUCntw7ovmYMnCBlz0EiCTTqNSqSCXyyHSF4afhIqSoigvWNjHw9F14Mg41zXBl9W0iEapVEI5EKFygPvu2wkOyMvmimhqEb8qCLB4aSvKZeCeezaLwPTgRWs5/c4ouhakMDhUxL3rNmHFyhbkRMtcbxht7cDA4E48+ug4RsfGpL4UqtUqPI5uk/0rCSpKiqK8gBERcrMIAw5KyIg4pDAwAFxw4RosOG0llp5+JsaKzNaIoVGKUgf6BirYtmOvCEwRuTyQb5iH5rYF2LIjRGtHE8ZKVeSbc+jsXoS+IY62A+bNX4qq6E6ArIhWA3LZnBFEi8v3gRSDXglFUV6w8D2iKBBh8vIIqi7SqSY8cF8/Dh0GGhoc7Np5EFs2lxGEHXjsMYhAtWHXrjIampYCziJs2AQ0trTh8cfHsHNnGXev60FPj4tHHhlGtqFZxKuAe+8dQzq7UJbj6OvNSj4glfZMfxK9JO1XejI6zZCiKJPm+CZkJUWMOw246R7g1nV9CDNNJj+HYLNPh+8HOXEaDqezOZlw6pzYMYuIIuFy2HYoHhO/tMpj4x++IJsz2eO4gpQXoVyuwvGysp3DvzkcXMoHRUTW45E6I9MkyFdS5RKFgdTN5r3kJV3zHVezr2TdLJOS00rgh6h4ozijzcOH3taKPEpyXPxEekpusy8/EfIqcO3tBdy1Xe4ZL5Ccv04zpCjK7MHhy6ccRGDslzFgYsbF+GTFAokJctISsqJLYv58yXcyg8fpj0rmxVikqghlPfIDiD5yEgqEojmhLwKTkjwS4nQkRlsONy8bMiJeaUnLlCSthECEOPLjJKTknDNcBlKHiK6capgOpU5OsxTCkbTYq4ia8xhqy5kQ+JTAF4ldtlnyZsnJmjvGUYoJfNCYWJkC1FNSFGXSHJenRFEST2kETbh5HfA/63rFWHcipOWRDI54FUawPDGK3hirVaYLUWMv8LG6s4gP/kYrsnJfXC+A+IVyNz3jKXnVCF83npJ+ukJRlBnG8YkSn7PLGEUet9zLT1fsl4dxyWNMHCthTglsQuOTujJt8OvAmUoZKzqr+L23N9VECQjkwYIzX7BpzQ0quPa2kojS1MwSrqKkKMqkOb4+JYk7FYzHGfzPvQXcsW4XYr8DUcQ+Fho0V3JyOp6MrKRMvcr04Ml9ymAAyzpdvO/t88186GxhjUSUONs5RYlTMH399hLu3qbfU1IUZYZx3KIkT9dVL4M9A8Atv9yGvoESPE+etMWY0eCF7FoyM2mzD0OZLjikIe0HeNl5K3HeGRl4gdxbPzSik8xt7pjZ0a+9fRz3bON8fipKiqLMII5LlPiZg5CzbPtmkEBJ8nvUHo5/4IKbZcmn8JM89k45CjajctIl+qvit8KLK+I9WYlIifS4vJX4xu1FEaVkqiQVJUVRZgzHLUqcGTvloyrJVbF8/ExPVhSIQpSIUijx5FlcmT44+KQcx/BdT+5FKHcjgBPJvXH4FCE3zPHNrbxWRGndFIkS/08oiqJMHbRVvi8CJtIjT96+GyEj9o1mjgPzvCg2n9yml8RPPWiYvuDLzcrJTXGjAHHMDxWm4LrsWSL0Z0V+jPZMnS+joqQoyvPk2Z+QOXZLzJx5mo7pFRkXyQYpz5eCYn7hNTF3GqYn8CVmN0qJOIkYiXcUilDxO1LJPWaO0DxcxHyamCJUlBRFmTROlEE64NeGTBc4soFIjitP2PJQ7bL5xylLpgoCvhhrfCH2VqREoICqrFZFi8xStlfE7pnmPQ3TFiqiCFXPkfuR+EV8XqiKOFWcjCyzED8Xoayzb2mq0D4lRVEmTeikkKqKH+SHCOIq2twxfPp9XWCXkjxkCwFMP7msK7MR3jjeTN7ExGPidExfNwMdpublWfWUFEWZFKYxxw0QehJcDutOhnaHNdvE7ZH5LLiE5M1YDbMtmBtaC6aZVURDllP5jrPsSVEUZXKYlyolHOlnYFwWyQP0EfgUrWGWBZEHV5ZUCbPOpdxXSRe/yNzWqUCb7xRFmRQ0HIHnwK+KIPnJyLp2dxyffu8iZMVmReI5OWbWNMjfqesYV6aKmgpJYPMcl1zjq7T/8T9l3LtVpxlSFGWGwfnrsmGMwCmLCFXRgiH8f7+/GD5f+/f4GiZDWgxZ3uRXZif8YruZbkjUgs7T124u4N7tSUNbIkYMJ0ZKtPlOUZTJITbIj1x4sQe39p4L+4+CgAYqLYLFkMxn54WiURpmZ+B7z3zGsEt5znDMFO9Tg4qSoiiTQ7Qn+c4O/3JSVQ71ziL2ODgcGA9TEnIIRJRiJ9AwK0OI2I3E363KfQwRst+QI/u9qWuO1eY7RVEmDTu80+ItVZwYVcdFI0r40BsbMLcFqKSMMwVXnq6NIVNmJRwNTt/XNt+VisB3bx/F5gPJjO4nuvlORUlRlEkTujFSIkqm98jxkUeItvK9yHmNGK5U4flppNwsijr79yzE9hkln20PQ87E4SKdzmA0yKLqNdS2qygpiqIopyjap6QoiqLMGFSUFEVRlBmDipKiKIoyY1BRUhRFUWYMKkqKoijKjEFFSVEURZkxqCgpiqIoMwYVJUVRFGXGoKKkKIqizBhUlBRFUZQZg4qSoiiKMkMA/n8FhgLp+Hus5QAAAABJRU5ErkJggg==;" vertex="1" parent="1">
                    <mxGeometry x="500" y="580" width="321" height="156.31" as="geometry"/>
                </mxCell>
                <mxCell id="27" value="" style="shape=image;verticalLabelPosition=bottom;labelBackgroundColor=default;verticalAlign=top;aspect=fixed;imageAspect=0;image=data:image/png,iVBORw0KGgoAAAANSUhEUgAABDoAAADCCAIAAAAnwTWJAAAAAXNSR0IArs4c6QAAIABJREFUeAHt3Q2YFNWd7/EaGAFf1uCqSMyLGS6XPCZrfNjokvgahisqIKjrCy+RRAg7vixGMjMxBqN7SULuclF5mWxcM4yYFV9WJxoQdgV6MMiMyY1L9snmNs+9ieM+j5udG9m1FQOdCDN1n66qc+pUVddM9dA1c+bU18dn6a6uOnXO5xyz/x9V1W1Z/IMAAggggAACCCCAAAIIIIAAAggggAACCCCAAAIIIIAAAggggAACCCCAAAIIIIAAAggggAACCCCAAAIIIIAAAggggAACCCCAAAIIIIAAAggggAACCCCAAAIIIIAAAggggAACCCCAAAIIIIAAAggggAACCCCAAAIIIIAAAggggAACCCCAAAIIIIAAAggggAACCCCAAAIIIIAAAggggMAQCPym52CW/x0CYU6BAAIIIIAAAggggAACgxTIclb5Tc/BQapxGAIIIIAAAgggYJhATY111n+x/myeNWu5dcN91k33W9d8xbr4ZuucT1mjaw0bK8MZSQJuXBlJPa5SXzM78Cr50QwCCCCAAAIImCJw9seta5ut7/5fq72v/L+PvWXd+pD1Xy+0ampMGTPjGDkCma3aMzvwkbM26SkCCCCAAAIIpCxw6pnWV54ORZRRTxdrtxyq3XJo9FNHrOd6A58+/C/Wh8+1akal3C2aR0ARyGzVntmBK5PPSwQQQAABBBDIsMClC6yni2oaOfXhX5w/98vTLl/wmcvnf+ay+dMuX/DpK5ZMeOClQGh59qi1rCXDagx9yAUyW7VnduBDvsQ4IQIIIIAAAghoJlB7grXiKTWojHn8P86f++XPXnJD2X8/fdVfnLr+l+r+1v/4iTX2JM1GRXcMFchs1Z7ZgRu6kBkWAggggAACCCQTqB1jNT+nZo9J3/vfF8y5o2xQkRunzbjlvNW7R7Ur94ZtyJNYkomz1/EJZLZqz+zAj2+9cDQCCCCAAAIIjHCB2/5WZpVxz/dd1PKT2dcvl7GknxdXzlk2c9UPT3vhqDzcKiWWk0c4B93XXiCzVXtmB679kqSDCCCAAAIIIJCawOe+IMPGuOf7Zr707rULmuuv+EI/KUV+dNFlN83787vmPPHLCduULxBbsp4n71ObLRp2BDJbtWd24Cx8BBBAAAEEEMiowKjR1uaDblwZ83zf7H1981ZuvvqaBhlIBnxx+YzPX3vbX8/e1zd+q5JYPnFZRj0Z9tAIZLZqz+zAh2ZdcRYEEEAAAQQQ0E6g8Rl5aeXiPX1zOvuu/dI3p1+x+LOX3HDzvMUbmu6+5LIbyyaWbzTcsfIvbnc/uvaGL8/ZU5yxt69G/kjL2v3ajZQOmSSQ2ao9swM3afUyFgQQQAABBBBIKnDyePm1xWdvL2WVOZ29135p1eX1i/7ylmV/+IcN9q6WQ9vW/fSRVZvua/rvd9z5wO13bGhe8fLGB/5f+4P2rpa+nS3b1qz87CU3zL1++ZyOw3M6+6bmlAssn56dtBtDu9+oWyafvvXGj3UuntS5eNLmidbsujN3L5rUueiDG890f/By3Gbno87FE9ecMrRd42yJBTJbtWd24ImXBjsigAACCCCAgEECl33evbRS0943/cd+XLn0c/Nf/d4qe1fLgP8Wd6yvr795zrV3unHlqn19o+QFlhVPVix117RShAj8u+gju2eevmbi6AkVN1b2gJq7pn1EbX/zxNFrrhZnnDbOOYa4UpZOr42ZrdozO3C91h+9QQABBBBAAIEhEKgZZbX8HzeuTHzRzSrO1ZWlq2ZeseDoSxsHzCruDvcuu33WNQ1uXJnT2XfuTnGB5bG3rFGjKxtHmbjipZe63dPGfbKyxsrtfcof7XAbXDTxwQ94O1zF1ZVyVJpvy2zVntmBa74g6R4CCCCAAAIIVF9g/ET51Mr5u/y4ct2SB772pduc28DWF7auO7Rt/bGdgejSu7Pl0Lb172xd9+62dfaulp88surKq2+VcWWWeoFlymcq67aMKzs+7gadUbeeN1FcDDl7nQgYlTWq7j3xdK+1q//oKnV74HXaV1dOW3L+6csvCJwy+Oa0JeefufLi4DbeBQUSVO2teVv8U8g1Bg+PvJu6dHV71xuFYlEccrRYeDOfe7SxfnJkX2VD3fTG1o793QeLxaPiQNsuvlcsvLE/19ZYr+wpXtbVN7fm/qWnIE9k28WD3V0//NbS/paEONqyEgzc35lXiQXEahl4qSRukh0RQAABBBBA4DgF6qbKuHLpy15cmdt57PXH73v8gebfPLt22fwl9fU3/7cZ86+bvejJVfe411Jee/SbC65bPGPG/Bkzbl543Rf+edO3j7208fGvLvtKrtt59KVvdmff2OfFBZZ5TZX1MRJXLMs6YeP13s1aW70MU1mbgb21iCsfbJk5qXPxhPsvCXRNvDltyfmTOhd/+Im5YgN/lhNIULWLAtS27X5r0LoFLfsLftgIvyp2t99eV6YLkxeu7ehWQkf4uDInvWDl9jfijzja07VmVpkTBTclGHjwgAHfrch5oz/QGtg3bntgpxH1Ro7Itu3QYC2xWvpdKiNjtG1+TncXZaFjoLQ+MgZGLxFAAAEEsidwXr2MKzNf8eLK4zt2Hn26+ZebVm2+v/m9X7z86vYfbdz42Ls/ffE7zffetmDJbQuWTJ9+czG/b9PfbHrx6WeK/2vrTfNusXe1vP7Iiq4XNrlxZU5n30kviLhyx/crYy0XV/xnS5xLLuqlj9H3XHT23sWTxKUYa8Ip49ZcdNbu+XXOJZS6vdef9XeTx/6p1wV5oHhSpXRX2Ol3WVbkpHJP9VF75wH9689xWv7YnjlnrJs4erDP4Y+pG//hJ+ZO6lx85j2fDfm4WeUjz1w3ZvJpoY94GxBIULWLArT/uHJNaz4+QYgIUsg1BxPL5Mbtbw50WKjwndyYOyjai/2zmG8bILEkGHgAauA3sogPVfBx2wduUdM9GjvUVJoPhjOxWkKzVv2hOCcKUVftLGIUwQVW1biSav9LEM40FXIrqoZCQwgggAACI1jgT2fJuDJ7nxdXNjtx5fdb1+x6+P7cE23vvLbz5y/+/Tud7Q9/tfnYD+8/+vdfW9d097/mnnt9745/zT3XveOJb955p72rpfhkc9cLbTKunPwjEVfu+WFlPpHkELi68sxHayzLzxKbp3n3iblx5ZMT/7j0BV+hJ/UXT+qcM/5LYyzlQHWfhHGldvVM75vElPbrtn689rgTyxkr/kwSuVnlo8/fMPYTZ8iNvCgvkKBqV0q3uBo0FCEK+fbVS6eWTjh11r1b8mpxW9y/1r8rbFbrATWrFHt+1v6tZfVeoLlg1sLl39rSke95Q70DLXhIsafLu82srn5ZSy6QfHq231p+yO7WBAPv7/Ayn8XFkrjtZZoYEZsaxVUkr5bPt6ndFqslbqmo+w76dbqkYgiha0dt+arFlXT7X2JtPeDODnFl0IuMAxFAAAGzBMrFlev2/eFX7Q/1bv+fvTs3tq++d83dd625+671zXf/+7Nr3bjSu3Pj91c2udtb72tyn8j/7bPfbO54PY24ojy7Mv/0u0rPs8i44qeOUlwZc9IzXlb5yJN1pa8RO2V07dcv9b4EbM8FY71cUe5msEhGkqfwrq5c94mz3ZSyZ9qJnym1fMKDVzsXcBad0VThdwkoK0heY/njO0oXgNyscs6Om8edf5ayFy9jBBJU7Ur1FlODLt3a4/81dCHX6AcS56yTv9X1nv95z46lbl/qHtqvhJVC7htOwInpZ5lDjnZvuSa096z2N/wT2T9vCV7KCeycYOCB/Qd+E1eDxm0fuEUt9xDDyXeI2BK4xCFWS8xSqc6QRB8it6JVoXlR6NtVCyfRTqXZf/dsYhTElag+WxBAAIFMCpS7GcyNHF0d29WvBevdufHdreve3rLy8JP3vP3Cw0f/MfDk/bFd371231GZVapzM5hyEcOJJYvOfjT8oyiTOq8+9ZbSZRPrnNHWhXUTvEMuPWmSnE3/e8BKV1FK/wwmrox9dL4bjc64R4QTebq/+5A82SBeyMTiZpWP7V544oUfHEQ7WTwkQdUuCtDYm8ECf92+f0OZjFC3Yb8fI7xCduF2JeP0bPUyTL9zUCeKsFJjMvYEDrlVbTXfGgpOyq4JBq7sneRlXA1afruiWhqNekuV9My3ykdBxN/0KzdihStR5aMBnjJKMpq4fcRZCrkVaj/l7mJchVyjHLjovNzJUscVHr7SgndAYIu6BrxFFchLykkG81KcKzAj0Ybkbm4X1Olz78JyRtUmr3I4//E492XF9F/B9J6ZcdpUDZ1TRUJUsCchdg8ovFSi42ELAggggIDhAuUetXdTx2Mvv2bvaundufG51V9bvnjZZZeXfth+3qyFy+bf6v6M/Rdv/OKm+5re/8fS70j+U+4FNatU51F7GVf23vjB56aedIMTS5z5kJc+PrRR+aKwO6e5z6v4z7EEdxZPoQwirpx4ytboDWZii3xsZrBrRSaWur23nHTRhwfbTPaOS1C1K/VQ2b8yv6K926uKbPvo/rVlDSdv8fexu9uvsCz1KLu/XKG0p16l6dl+i/KJ/1KWfbZtF7tW+R+EXiUYeOiIgd5GKkup4r2QVXXkGW53B3FXlTqEQBuFgnpfnZpJyh4SqKEH6n3Cz8WJnJUgoostel66Cyn8fLocQdLhixb8xRbYElPuJ+z/QLvJSfTPHjlkgOnz44ocuvfCaTOm/wLWP8aZvnLn8hNL9FPiSmS62IAAAgggUBIo/0XGpYdYFr1y+Niu79q7Wn6/Y0P3k3+96b6m5V/+q47cK0890b5h4+a/uuPOX7R9+z3nW4z7drX85d631LhS3S8yjs6UjCsigTi7RG7ocg+M7DyIuCIv0YiIIqNUp/KUf7SjibeMqRt/1nemnzz9nMRHsGOi7/MVxWLc1ZVmcVNQ6ZLH9oXlVdVqzPm7XvWog7k7xVFlijn5d/Nq5onLRf5d+6W6TymjxQnEn8MXV6Sn/DtvucUNGL6VW5jKVFAKKKW/oZc7eC2IHcIN+nWtGPXx/imqea9l8Va5KUuOReLLLW73Qm/VhOMOX+zgB4bIljLnPd6RecfLACDDVbhh0RlvLqL9V+KKN4TIIWX6L+c0+mVrsgdiH7dZ2YjfE6u1w3vQS/x3JJeEbIQXCCCAAAKZFCj/M5HeM/cvdrws7wfr3bnx2zct6Zz7xZ/Nu/XbMxf2PLtWftSz+wfzOo+pcaU6PxMZf9UikkCcuav/uPh5lktPLHMz2Pzx3tPLg4gr1rhN3lMx/s1gmVwveg06QdUuiy31r/OVUcgKT+YK5UPxUlRapRDhlFAxR4kyy/9L5tIrt3b067OYnjgnU1sYnrgSqnRlt93tYuBqlhB5wy3xpZW4PBJqwfvSJyHpp5cgmnQTc3D8fwpbWQRHuiqvrvhhwy/fS9Mx8PDFevNbiGyJgBz/0LwWRPeUABZsW+wQP33B8TpHB+fXssr0X0pKW+W84qRigksLQ7ap9kQeE5kp+QkvEEAAAQSyKnDZ590vB6tp75v+Yy+ouNlj4b4j3bufkrHk6LMPvnVP0ztfbTry2Hfkxnd3ty57paBmlavU34hcsaVi1piLJGo75eOKdeLJz4lH7Td/aJTzqP0Jq2d81L0S8tJ5JxzHo/Y1d03z2tlz6UlzvcdXauZOPPWZ88apPeP1UApUIa48pDyXkvzqyqPKTUPKUaLMEoWZ+6db6N+iPJei89WVoYsroXgTRIu7Gjb45SViQ+Q8yoUssY8fNvzCegTEFRkk4p5dEclBDQkyObjxOPRWfKdwSc3Lz/Is/lKRcUVkVGeaZFNB8kBc8doMTqv476hc+AnuyTsEEEAAgawInDzeerroJpaztwfiypzOvsWvvPfr3NMynHyj4fYb535evn1r9+av7v03NavM6eybmhNfYdzeZ316dsWMg48rlvXJiafvKXe/1t6Zp/gdGczVFcsaM27zjf4Xkfk3g00jrlQ8xdU6oApxZblyM1hcipgsqlinZiv9Uoes2OyYJ17UHbyqTm0kybMr/dVqCQZeobHssF+DOi2Etg9c70Yq11ALyt+sO6VqZP8KO550d9HzYOks3oXmSIkrgdJZNBJf7otZli3I4Ue3hKiTjqSf/SRmzDeDDdz/YDxzTiVTR4VxRVCI7CQkiSv9zCAfIYAAAgjEC3zlGfnrKxfvCSeWazp7H9vz2qFd339v27rCjx7+bfuDv3tx3ZGX/mZnx+7rO98PZZUZe/tq2kVcWbs//pTxnxxPXLEsa8IpJ667VP5M5Mf2zJnwvboTxM9EOmcdXFwpHTq6aeqEHTeKX1+Z/6EdMz7w9Q/UxA+FT9IVSFC1y5op7hYs9Ql4e+BvBvOupazdf1RUuna5o2SR6t/UVK9+T/HA3wwWl50c0QQDr1BedjhUQ4e3S0/59+ihLbJiFjuEWwgXxLIaVm9haj0gDq9wHHG7i1pZXCLw9gt1Xr4Vu8nOezW33EF2L7RFDt9Lm/7oonFFbonr9CC2i0BSujql/oy997srod729+yKvO4hhxCOK37/5aglix/pRTeCp/ZhZSxvzB0IPbsiZmEQDhyCAAIIIGCewKjR1ua33MQy5vk++XuRahT50baXnl3Z8P2mhtamhtbGZZ1PtS2IZJXZ+/rGbxVZpb3P+sRl5lExIo0EElTtskiKiyvWyleUH1A5GP3dFVmKlfJJ95P17vgDRxXzraEfUfGrMfHsimXVP6l8wVj0EGvWll/5Eaj4ysp+oBMMvJ+jy30kOzxAXPGf3/D76rwS1a3kEpVrpOVw+SufGAm0KA4v19nKt8llEG42GGPkboGu+PdBWQMO3w9j4Sb84j54lhB45WMLHSF5Qx3wYoOSZ9QdxPT5/Y/fEu1/ZNJLfQru5p/Mm4Iy/RREwY9kngkNlLcIIIAAAtkT+NwX5AWWs7f3/XPB/u3v7YN/8P/9bf6f3n+6+ciWpiNbmt5/qvngqy/+R/GYv8Pv7V//zr7+VSWrLFlv1YzKniMjHkKBBFW7UjOJYijcwSta80pgsQv5LffOcn/Vfunq9sCv2h9UfqL+mi3dygUWu9iz/wcrr5/u/GzL5PqlbUqTfj3amDvoV212sSe3YWl96cdV6uqbW7vUX7Uv5luvCHdTfZ9g4OruCV5HQoV3TPntimppQGoGiFSukRZkMSoL4lJt6/2Quecj/ko+Qc+T7CJrdH8uxGGBj8S4CrnWDv9rl9V+OoeJ3bzOqsMvfa6MRfnxGXX5SRP/4pvoT3X+lLMg15ta9PfX/+jsRLcEboYskcrTBSmUYeb9X3FR9lF2KHVUmR3FUO15dXRoBQEEEEBgBAvc9rdWe9+EF/vefV/+/zj/xe9+d+SdAz89knu0uPO7h36+693Qjyg4OxaP2Z/7sZNYNuStsSeNYAq6PiIEElTtocrMX9DOK69yqlO/mDi0i3wbuR4ya02XX9LK3aIvlCLMuiYYjaI7l7YUcs1lfq1SnZEEA1d35zUCCCCAAAIIIGCEQO0Yq/m52/f3la+hbPvw4SP/+Z+FgwffPnTovd7e8rtt+/c+az1ZxYj1oP8gElTtieKKZVlTl7d3q9dYQv8R9HStDd3u5egMcJTTSKEjcFtX3YK1XT2h1pW3xe722wfIKlaiH5zRf/boIQIIIIAAAgggULlA7Qmbn3leKZ7CL98uHP5V91tHj6q3wQT26frZfq6rVO7OEYMSqGJcKZ1/cn3jo7n8m4WiXN7FYuGNrvbVS517w+K6OHXp6vauNwpFNe0Ui4U38107Whrd28PCh0YOOVraP/doo3NvWHjv6PsEA48exBYEEEAAAQQQQMAQgYbbbv/D++VuCLPttwuH97164KH1PwhkFOdNb2/vY49tNoSAYYwIgcxW7Zkd+IhYlnQSAQQQQAABBIZA4Kyzztq2bVs0k7xdOPzr7oO9vb2hj379+uuf+tSnRo3i2fohmBxOIQQyW7VnduBi5vkTAQQQQAABBBAoCXzyT/7k/gceePPNf5Ph5O3C4dd+3r19x153yzvvvPO9Rx656KKLCSqsmGEQyGzVntmBD8Mi45QIIIAAAgggoL1ATU3Nueeee+NNNzU2NX195f2NTSvvvffexYsXX3DhhWPHjtW++3TQXIHMVu2ZHbi5a5mRIYAAAggggAACCBgnkNmqPbMDN24JMyAEEEAAAQQQQAABcwUyW7VnduDmrmVGhgACCCCAAAIIIGCcQGar9swO3LglzIAQQAABBBBAAAEEzBXIbNWe2YGbu5YZGQIIIIAAAggggIBxApmt2jM7cOOWMANCAAEEEEAAAQQQMFcgs1V7Zgdu7lpmZAgggAACCCCAAALGCbhVe2b/r3HzyYAQQAABBBBAAAEEEDBIILNBhasrBq1ihoIAAggggAACCCCAAAIIIIAAAggggAACCCCAAAIIIIAAAggggAACCCCAAAIIIIAAAggggAACCCCAAAIIIIAAAggggAACCCCAAAIIIIAAAggggAACCCCAAAIIIIAAAggggAACCCCAAAIIIIAAAggggAACCCCAAAIIIIAAAggggAACCCCAAAIIIIAAAggggAACCCCAAAIIIIAAAggggAACCCCAAAIIIIAAAgkFbP5BAAEEEEAAAQQQQCBlgYSlKbtpJZDyokjUvJVoL3ZCAAEEEEAAAQQQQOA4BLSqwulMQoHjmPCqHUpcqRolDSGAAAIIIIAAAgjECSSsj9lNK4G42RzK7cSVodTmXAgggAACCCCAQEYFtKrC6UxCAR0WK3FFh1mgDwgggAACCCCAgOECCetjdtNKQIdFSVzRYRboAwIIIIAAAgggYLiAVlU4nUkooMOiJK7oMAv0AQEEEEAAAQQQMFwgYX3MbloJ6LAoiSs6zAJ9QAABBBBAAAEEDBfQqgqnMwkFdFiUxBUdZoE+IIAAAggggAAChgskrI+ttrwLUehoVA5pzBXczflWZSsv0xbQYVESV3SYBfqAAAIIIIAAAggYLpC0sCauJJUaiv10WJTEFR1mgT4ggAACCCCAAAKGCyQtrokrSaWGYj8dFiVxRYdZoA8IIIAAAggggIDhAkmLa+JKUqmh2E+HRUlc0WEW6AMCCCCAAAIIIGC4QNLiOnFcaT0QEMu3+WcIfHRAPu2iPADjnaX0JExjh3gsps1SDizkVngNyh3E+fyPLKtVPGqTa1whnq+xbffBG6W18CM3yke27ffQH4Imr8SQh/NP4spw6nNuBBBAAAEEEEAgIwJJ6+9EcUUGDx9PxBWRH/xPbLuQcx7bjx4ViCvqEaXX3lFqhpG7yMRS7nTOwQUvBIlD/ExS7hBxrqRKQ7Wf6P1w/klcGU59zo0AAggggAACCGREIGmBnSSuyOsYMgO05d24Iq5aiKsZYk/nUyWuyAOVqysin8g4ITOJ0nfRoPjiMrmzHeyAbdtuH+QOXpf67aFyIj1e6rA4iSs6zAJ9QAABBBBAAAEEDBdIWn4niSvyFqySmRoqZDYIYzrpQsYV9ZDAzWBuJ+XdX+KKTWmziBmiZS/wiDPKyyOR/osDQ+lFtCP+FPknqdPQ7Cd6N5x/EleGU59zI4AAAggggAACGRFIWl5Hyn3nQJk0xGUTsZvQcxOICA9iq/9nKV1EGnGbVp5dcTsZjCvyKL+x0quK40qSHiZFGrL9gmMennfEleFx56wIIIAAAggggECmBJJW2OJuK5EH3ONEDpEXMdzNcmfvUZOY3bxzy+AhMo+zPRhOSpsCW2QuCuWT0FvZMbG/vFoirq4E44rc3+ubpn/osESJKzrMAn1AAAEEEEAAAQQMF0hcj8tQ4T0Not6I5d2dtSJX8NJCKVyIL+QqhRCRDbzv5nJO2pg7EHrUvoK4IqKLuH9MpBGRpiIBSewQE1f672FipKHaUYdFSVzRYRboAwIIIIAAAgggYLhABQW2es1EVZFXJMru4AaYsh95BwaCjeyPCCR+OgpsEfFD7Ujp9SCvrlhWfz2UndLlRXjUw/GeuDIc6pwTAQQQQAABBBDImECFBbiMFh6T+tR7tOIPfOpfbwkdK9us4OqKem+Y82Vf4nLKoONKCUL2JNTDCpHS312HRUpc0WEW6AMCCCCAAAIIIGC4QPqlNWeovoAOi5K4osMs0AcEEEAAAQQQQMBwgeqX0rSYvoAOi5K4osMs0AcEEEAAAQQQQMBwgfRLa85QfQEdFiVxRYdZoA8IIIAAAggggIDhAtUvpWkxfQEdFiVxRYdZoA8IIIAAAggggIDhAumX1pyh+gI6LEriig6zQB8QQAABBBBAAAHDBapfStNi+gI6LEriig6zQB8QQAABBBBAAAHDBdIvrTlD9QV0WJTEFR1mgT4ggAACCCCAAAKGC1S/lKbF9AV0WJTEFR1mgT4ggAACCCCAAAKGC6RfWnOG6gvosCiJKzrMAn1AAAEEEEAAAQQMF6h+KU2L6QvosCiJKzrMAn1AAAEEEEAAAQQMF0i/tOYM1RfQYVESV3SYBfqAAAIIIIAAAggYLlD9UpoW0xfQYVESV3SYBfqAAAIIIIAAAggYLpB+ac0Zqi+gw6IkrugwC/QBAQQQQAABBBAwXKD6pTQtpi+gw6IkrugwC/QBAQQQQAABBBAwXCD90pozVF9Ah0VJXNFhFugDAggggAACCCBguED1S2laTF9Ah0VJXNFhFugDAggggAACCCBguED6pTVnqL6ADouSuKLDLNAHBBBAAAEEEEDAcIHql9K0mL6ADouSuKLDLNAHBBBAAAEEEEDAcIH0S2vOUH0BHRYlcUWHWaAPCCCAAAIIIICA4QLVL6VpMX0BHRYlcUWHWaAPCCCAAAIIIICA4QLpl9acofoCOixK4ooOs0AfEEAAAQQQQAABwwWqX0rTYvoCOixK4ooOs0AfEEAAAQQQQAABwwXSL605Q/UFdFiUxBUdZoE+IIAAAggggAAChgtUv5SmxfQFdFiUxBUdZoE+IIDLpKgnAAAMi0lEQVQAAggggAAChgukX1pzhuoL6LAoiSs6zAJ9QAABBBBAAAEEDBeofilNi+kL6LAoiSs6zAJ9QAABBBBAAAEEDBdIv7TmDNUX0GFREld0mAX6gAACCCCAAAIIGC5Q/VKaFtMX0GFREld0mAX6gAACCCCAAAIIGC6QfmnNGaovoMOiJK7oMAv0AQEEEEAAAQQQMFyg+qU0LaYvoMOiJK7oMAv0AQEEEEAAAQQQMFwg/dK6gjO0HnC0C7nGCg7K4q46LEriig6zQB8QQAABBBBAAAHDBSoq9r04oZDk2ypqoP+dW/Ney4Xciv73zPqnygwM20viyrDRc2IEEEAAAQQQQCA7AokLf5klAjaJ44pz+IHW4OnCG7m6EvSJfReYg2F6Q1wZJnhOiwACCCCAAAIIZEkgtiIOfuBfV1EiR2NHIVFcWZEruKTKsVbZjcGT8i5OQIcVSlzRYRboAwIIIIAAAgggYLhAXEEc3N4oAsegbtMqm0zKbgyelXdxAjosSuKKDrNAHxBAAAEEEEAAAcMF4gri4HYZV2xbvUIS3Mm/AmP7uwU2upYHWstutCx5lrx701hjh3dVJt9mKYcEI1ObeODFtgsdrSJWeS0EO2jOOx0WJXFFh1mgDwgggAACCCCAgOECSUt4JRWURMKhpdyTLc4XfCkxQ0hWHlfEkeJP8dVhMs+ID+SfxBVJkdYL4kpasrSLAAIIIIAAAgggIAWSxhXLimaDQof3hcMik4iQIG708p5sEW8DIafMxtirK7aXT2Qoci+whN5alp+pRE+SD29E7SmnbxhfEFeGEZ9TI4AAAggggAACWRGotEoXycTzcQKJjA1hNC/PlEkmVrlH7WPjinygX0am0hYRTmRqit5OVunoRsr+YejheE9cGQ51zokAAggggAACCGRMYHAFuh9aStc9YuOKdzmFuDI45fijdFikxBUdZoE+IIAAAggggAAChgvEl8T9fiITiBpXxCMl4SPlzuoTL2U2cnUlLBf3XodFSVzRYRboAwIIIIAAAgggYLhAXEEc3N6YKwS+j8u/uuIkEPk2cF/WgZz3aItMJmqeKbOxwrgiW7C9J1XkrWK22BIchTnvdFiUxBUdZoE+IIAAAggggAAChgskK+FlkAhpiAzjJwdlBz+cBO8W866xRDfKs4TjR/lnVyz1242V85Ze8qh9CKT6b4kr1TelRQQQQAABBBBAAIGQQLK4UuZrwQJf81VqRYYN7wwyY5Q+VPOMvCUsvFG2kDSuWMHEkm8Lt5BwdCNut9AkDstb4sqwsHNSBBBAAAEEEEAgWwIjrlLvt8Piio1/Yaff3UfshzqsUeKKDrNAHxBAAAEEEEAAAcMFRmzFXup4Y0dBuYYjL63YyiM0I3p8sZ3XYVESV3SYBfqAAAIIIIAAAggYLhBbEY+ED5Rn65VpkjebjYQhDK6PymiH7SVxZdjoOTECCCCAAAIIIJAdgcGVy5ocFYkr4tF/TfqXWjd0WJ/EFR1mgT4ggAACCCCAAAKGC6RWUdNwigI6LEriig6zQB8QQAABBBBAAAHDBVKsqWk6NQEdFiVxRYdZoA8IIIAAAggggIDhAqlV1DScooAOi5K4osMs0AcEEEAAAQQQQMBwgRRrappOTUCHRUlc0WEW6AMCCCCAAAIIIGC4QGoVNQ2nKKDDoiSu6DAL9AEBBBBAAAEEEDBcIMWamqZTE9BhURJXdJgF+oAAAggggAACCBgukFpFTcMpCuiwKIkrOswCfUAAAQQQQAABBAwXSLGmpunUBHRYlMQVHWaBPiCAAAIIIIAAAoYLpFZR03CKAjosSuKKDrNAHxBAAAEEEEAAAcMFUqypaTo1AR0WJXFFh1mgDwgggAACCCCAgOECqVXUNJyigA6LkriiwyzQBwQQQAABBBBAwHCBFGtqmk5NQIdFSVzRYRboAwIIIIAAAgggYLhAahU1DacooMOiJK7oMAv0AQEEEEAAAQQQMFwgxZqaplMT0GFREld0mAX6gAACCCCAAAIIGC6QWkVNwykK6LAoiSs6zAJ9QAABBBBAAAEEDBdIsaam6dQEdFiUxBUdZoE+IIAAAggggAAChgukVlHTcIoCOixK4ooOs0AfEEAAAQQQQAABwwVSrKlpOjUBHRYlcUWHWaAPCCCAAAIIIICA4QKpVdQ0nKKADouSuKLDLNAHBBBAAAEEEEDAcIEUa2qaTk1Ah0VJXNFhFugDAggggAACCCBguEBqFTUNpyigw6IkrugwC/QBAQQQQAABBBAwXCDFmpqmUxPQYVESV3SYBfqAAAIIIIAAAggYLpBaRU3DKQrosCiJKzrMAn1AAAEEEEAAAQQMF0ixpqbp1AR0WJTEFR1mgT4ggAACCCCAAAKGC6RWUdNwigI6LEriig6zQB8QQAABBBBAAAHDBVKsqWk6NQEdFiVxRYdZoA8IIIAAAggggIDhAqlV1DScooAOi5K4osMs0AcEEEAAAQQQQMBwgaQ19YpcwZU40Jr0kEHsJ8/iqRdyKwbRivmH6LAoiSs6zAJ9QAABBBBAAAEEDBdIWtrLIJFaXGk9EENd+RmdpvJp5qqkbCntFyM1pJuJK0PKzckQQAABBBBAAIFsCiStp1OOK35WKeQavT615sWUFDrEtoG72yguAxFXBF86fxJX0nGlVQQQQAABBBBAAAFFYOD6390j1bgiG/ezinNWud1Onj2IK8rspvmSuJKmLm0jgAACCCCAAAIIOALViiuNHd6zLa5r5HqITBG2bedb27wLJ+5u8tjIUZa86pJvK/VUvPWfaQlsEc0qc5s85ySV0GE/ZYDD9pK4Mmz0nBgBBBBAAAEEEMiOQNLiW17oKPMkiRpFFDn/Uol/W5fycemlm08CkSPYoVCSie4Z2EJcCfmm+Za4kqYubSOAAAIIIIAAAgg4AsF0EP8uPq7IRGGLJCO3hC6eiB38eOPsIN/610xkP0JNBcKJs1Nki2zNzOsqrowOi5e4osMs0AcEEEAAAQQQQMBwARkMBngRG1fKxgNxOaV0gaXcDuIyCHFlAPaYj3VYlMQVHWaBPiCAAAIIIIAAAoYLxNTDkc0pxhX5RIp3b5h6bnHxxE707ErpyHLpSG3RiNc6LEriig6zQB8QQAABBBBAAAHDBZJW72nGFUtcbLH9x13cfomrNOKbwUR6kbeNyXAS3cLNYOkuXeJKur60jgACCCCAAAIIIGDb9nHHFSv0eEnpAof4lrDgk/Ty4okMIXKLf4FFSSz+bu6llWjLlgxRdjSuyC1JhziC9tNh6RJXdJgF+oAAAggggAACCBgukLRG94NBAMQJEvISR+AjP3jEHCu/GczpQ0wj4tvDvH7GNuWHE3EFxu2MmddYgtDD8464MjzunBUBBBBAAAEEEMiUQDXiSqkNeUXF1XOvq/iNqzGjkGsUd3+FdxPbxRSUCxvKPvk2eVnGjyvK4yvOb7z4nTDnlfAZzj+JK8Opz7kRQAABBBBAAIGMCAxLCS+zjbzLa1i6MXJPqsPiJK7oMAv0AQEEEEAAAQQQMFxgSEr21rz6DL1/eaTcxZMh6dBIP4kOi5K4osMs0AcEEEAAAQQQQMBwgSEp3P2H5hVN9fatIemFQSdRGIftJXFl2Og5MQIIIIAAAgggkB2BIanhI3HlQOuQnNfYk+iwPokrOswCfUAAAQQQQAABBAwXMLaiN3pgOixK4ooOs0AfEEAAAQQQQAABwwWMruqNHZwOi5K4osMs0AcEEEAAAQQQQMBwAWMreqMHpsOiJK7oMAv0AQEEEEAAAQQQMFygtrbW6MLewMHV1tbqsCiJKzrMAn1AAAEEEEAAAQQMF5gyZYqBFb3RQ5oyZYoOi5K4osMs0AcEEEAAAQQQQMBwgYaGBqNrewMH19DQoMOiJK7oMAv0AQEEEEAAAQQQMFygq6vLwIre6CF1dXXpsCiJKzrMAn1AAAEEEEAAAQTMF+ACywhKN5pcWrFtm7hi/v80MEIEEEAAAQQQQEATgSuvvHIEleyZ7eqVV16pyYIhrugzEfQEAQQQQAABBBDIhADXWDRPQfpcV3H/e+DqSib+d4FBIoAAAggggAAC+gh0dXU1NDRMmTKFbzfWJLrU1tZOmTKloaFBk+dV1LVKXFE1eI0AAggggAACCCCAAAIaCRBXNJoMuoIAAggggAACCCCAAAKqAHFF1eA1AggggAACCCCAAAIIaCRAXNFoMugKAggggAACCCCAAAIIqALEFVWD1wgggAACCCCAAAIIIKCRAHFFo8mgKwgggAACCCCAAAIIIKAK/H8A4lxLGPXg8AAAAABJRU5ErkJggg==;" vertex="1" parent="1">
                    <mxGeometry x="10" y="580" width="468.49" height="84" as="geometry"/>
                </mxCell>
                <mxCell id="28" value="" style="shape=cylinder3;whiteSpace=wrap;html=1;boundedLbl=1;backgroundOutline=1;size=15;" vertex="1" parent="1">
                    <mxGeometry x="20" y="100" width="110" height="110" as="geometry"/>
                </mxCell>
            </root>
        </mxGraphModel>
    </diagram>
</mxfile>